<svg width="206" height="64" viewBox="0 0 206 64" fill="none" xmlns="http://www.w3.org/2000/svg">
<path d="M86.7854 16.5106C86.7854 16.2663 86.8319 16.0394 86.925 15.83C87.0181 15.6205 87.1403 15.4402 87.2915 15.2889C87.4428 15.126 87.6173 15.0038 87.8151 14.9224C88.0246 14.8293 88.2456 14.7828 88.4784 14.7828H100.381V16.8597H88.9496V24.9231H100.381V27H88.5482C88.3038 27 88.0711 26.9535 87.85 26.8604C87.6406 26.7673 87.4544 26.6451 87.2915 26.4939C87.1403 26.3426 87.0181 26.1681 86.925 25.9703C86.8319 25.7608 86.7854 25.5397 86.7854 25.307V16.5106ZM101.957 19.7046C101.957 19.3439 102.085 19.0472 102.341 18.8144C102.597 18.5701 102.899 18.4479 103.248 18.4479H111.172C111.521 18.4479 111.818 18.5701 112.062 18.8144C112.318 19.0588 112.446 19.3613 112.446 19.722V22.4796C112.446 22.8403 112.318 23.1428 112.062 23.3872C111.818 23.6315 111.521 23.7537 111.172 23.7537H104.069V25.2547H112.341V27H103.231C102.882 27 102.579 26.8778 102.323 26.6335C102.079 26.3891 101.957 26.0866 101.957 25.7259V19.7046ZM110.334 22.0433V20.1583H104.069V22.0433H110.334ZM114.111 19.722C114.111 19.3613 114.233 19.0588 114.478 18.8144C114.722 18.5701 115.019 18.4479 115.368 18.4479H121.476V20.4725H116.223V27H114.111V19.722ZM122.785 19.7046C122.785 19.3439 122.913 19.0472 123.169 18.8144C123.425 18.5701 123.727 18.4479 124.076 18.4479H132C132.349 18.4479 132.646 18.5701 132.89 18.8144C133.146 19.0588 133.274 19.3613 133.274 19.722V22.4796C133.274 22.8403 133.146 23.1428 132.89 23.3872C132.646 23.6315 132.349 23.7537 132 23.7537H124.896V25.2547H133.169V27H124.059C123.71 27 123.407 26.8778 123.151 26.6335C122.907 26.3891 122.785 26.0866 122.785 25.7259V19.7046ZM131.162 22.0433V20.1583H124.896V22.0433H131.162ZM134.856 14.7828H136.968V24.8882H143.548V20.4725H138.277V18.4479H144.385C144.735 18.4479 145.031 18.5701 145.276 18.8144C145.532 19.0588 145.66 19.3613 145.66 19.722V25.7259C145.66 26.0866 145.532 26.3891 145.276 26.6335C145.031 26.8778 144.735 27 144.385 27H136.13C135.781 27 135.479 26.8778 135.223 26.6335C134.978 26.3891 134.856 26.0866 134.856 25.7259V14.7828ZM147.484 19.722C147.484 19.3613 147.606 19.0588 147.85 18.8144C148.095 18.5701 148.391 18.4479 148.74 18.4479H154.849V20.4725H149.596V27H147.484V19.722ZM156.157 19.722C156.157 19.3613 156.279 19.0588 156.524 18.8144C156.78 18.5701 157.082 18.4479 157.431 18.4479H165.163C165.512 18.4479 165.809 18.5701 166.053 18.8144C166.309 19.0588 166.437 19.3613 166.437 19.722V25.7259C166.437 26.0866 166.309 26.3891 166.053 26.6335C165.809 26.8778 165.512 27 165.163 27H157.431C157.082 27 156.78 26.8778 156.524 26.6335C156.279 26.3891 156.157 26.0866 156.157 25.7259V19.722ZM164.325 24.9754V20.4725H158.269V24.9754H164.325ZM175.178 14.7828H177.133V17.2088H178.599V19.1286H176.452C176.103 19.1286 175.801 19.0064 175.545 18.7621C175.301 18.5177 175.178 18.2152 175.178 17.8545V14.7828ZM180.255 21.4324C180.255 21.1997 180.296 20.9845 180.378 20.7867C180.471 20.5772 180.593 20.3969 180.744 20.2456C180.907 20.0827 181.093 19.9547 181.303 19.8616C181.512 19.7686 181.739 19.722 181.983 19.722H189.244V16.8597H180.866V14.7828H189.698C189.93 14.7828 190.146 14.8293 190.343 14.9224C190.553 15.0038 190.733 15.126 190.884 15.2889C191.047 15.4402 191.175 15.6205 191.268 15.83C191.362 16.0394 191.408 16.2663 191.408 16.5106V20.106C191.408 20.3387 191.362 20.5598 191.268 20.7692C191.187 20.967 191.065 21.1474 190.902 21.3103C190.751 21.4615 190.57 21.5837 190.361 21.6768C190.151 21.7582 189.925 21.7989 189.68 21.7989H182.42V24.9231H191.792V27H181.948C181.716 27 181.495 26.9593 181.285 26.8778C181.087 26.7847 180.913 26.6626 180.762 26.5113C180.61 26.36 180.488 26.1797 180.395 25.9703C180.302 25.7492 180.255 25.5165 180.255 25.2721V21.4324ZM193.362 14.7828H195.527V21.5895H202.298V17.7149H204.463V27H202.298V23.6664H195.09C194.846 23.6664 194.619 23.6257 194.41 23.5443C194.2 23.4512 194.014 23.329 193.851 23.1777C193.7 23.0149 193.578 22.8345 193.485 22.6367C193.403 22.4273 193.362 22.2062 193.362 21.9735V14.7828Z" fill="#212121"/>
<path d="M86.3491 47.0891H90.7298V39.0257H86.3491V36.9488H97.554V39.0257H92.894V47.0891H97.554V49.166H86.3491V47.0891ZM98.2459 47.0891H102.627V39.0257H98.2459V36.9488H109.451V39.0257H104.791V47.0891H109.451V49.166H98.2459V47.0891ZM110.143 47.0891H114.523V39.0257H110.143V36.9488H121.348V39.0257H116.688V47.0891H121.348V49.166H110.143V47.0891ZM128.406 39.0257H122.123V36.9488H136.836V39.0257H130.57V49.166H128.406V39.0257ZM137.886 36.9488H140.208L143.524 47.0891H146.334L149.65 36.9488H151.936L148.358 47.4905C148.184 48.0141 147.928 48.4272 147.59 48.7297C147.253 49.0206 146.822 49.166 146.299 49.166H143.559C143 49.166 142.558 49.0206 142.232 48.7297C141.907 48.4272 141.651 48.0141 141.464 47.4905L137.886 36.9488Z" fill="#212121"/>
<path fill-rule="evenodd" clip-rule="evenodd" d="M22.5219 1.08191C21.9031 2.12886 22.2501 3.47925 23.2971 4.09808C24.344 4.71691 25.6943 4.36986 26.3131 3.32291C26.932 2.27595 26.5849 0.925571 25.5379 0.306738C24.491 -0.312095 23.1407 0.0349629 22.5219 1.08191ZM26.4503 5.59403C26.7968 5.39689 27.2374 5.51793 27.4346 5.86437C28.0745 6.98887 29.2838 10.0494 29.2771 13.7127C29.2731 15.9633 29.0443 17.8724 28.8199 19.5326C28.7912 19.7449 28.7627 19.9522 28.7349 20.1549L28.7349 20.155C28.5425 21.5562 28.38 22.7396 28.378 23.8405C28.3762 24.8254 28.5467 26.0168 28.7946 27.1165C29.0441 28.2235 29.3573 29.1729 29.6125 29.6856C29.7901 30.0425 29.6448 30.4758 29.288 30.6534C28.9311 30.831 28.4978 30.6857 28.3202 30.3289C27.9903 29.6661 27.6466 28.5884 27.3864 27.4338C27.1245 26.2719 26.9325 24.9669 26.9345 23.8379C26.9367 22.6318 27.1144 21.341 27.3054 19.9535C27.3333 19.7508 27.3614 19.5461 27.3894 19.3392C27.6114 17.6971 27.8298 15.8636 27.8336 13.7101C27.8398 10.327 26.7108 7.51114 26.18 6.57828C25.9829 6.23183 26.1039 5.79117 26.4503 5.59403ZM44.1843 8.13227C44.3619 8.48911 44.2166 8.92239 43.8598 9.10001L42.0966 9.97764C41.2853 10.3815 38.703 12.0925 36.9926 13.7969C36.356 14.4312 35.6583 15.4633 35.032 16.5404C34.5809 17.3161 34.183 18.0866 33.89 18.6947L36.0039 20.1802L36.2406 20.3466L36.2969 20.6304C36.3713 21.006 36.4822 21.6111 36.5747 22.2142C36.6647 22.8007 36.7462 23.4401 36.7455 23.8557C36.7439 24.7174 36.3976 25.5956 36.2251 25.9391C36.0462 26.2953 35.6124 26.4391 35.2562 26.2602C34.9 26.0813 34.7563 25.6475 34.9352 25.2913C35.0573 25.048 35.301 24.4006 35.302 23.8531C35.3025 23.564 35.2393 23.0287 35.1479 22.4331C35.0797 21.9881 35.0006 21.5401 34.9354 21.1936L32.8344 19.7172C32.774 19.7074 32.7138 19.6897 32.6553 19.6636C32.5068 19.5972 32.3916 19.4868 32.3185 19.3547L31.5901 18.8428C31.4735 19.2909 31.3672 19.8263 31.3396 20.3341C31.2887 21.2736 31.5139 22.0283 31.6016 22.2303C31.7603 22.596 31.5925 23.0211 31.2268 23.1798C30.8612 23.3385 30.4361 23.1707 30.2774 22.805C30.1037 22.4049 29.8347 21.4273 29.8983 20.2559C29.956 19.19 30.2837 18.0841 30.4815 17.5443C30.5 17.4468 30.5392 17.3515 30.6 17.2649C30.6038 17.2596 30.6076 17.2543 30.6114 17.2491C30.6146 17.2448 30.6179 17.2406 30.6211 17.2364C30.7646 16.955 30.9897 16.3956 31.0162 15.906C31.0587 15.1224 31.0142 14.6639 30.9556 14.3469C30.9256 14.1851 30.8902 14.0497 30.8511 13.9057L30.8401 13.8651C30.8046 13.7351 30.7631 13.5831 30.7315 13.4196C30.6559 13.0282 30.9119 12.6496 31.3033 12.574C31.6947 12.4984 32.0732 12.7544 32.1488 13.1458C32.1696 13.2533 32.1969 13.3535 32.2347 13.4926L32.2441 13.5273C32.2854 13.6794 32.3338 13.8619 32.375 14.0844C32.4585 14.5359 32.5049 15.1115 32.4576 15.9842C32.429 16.5112 32.271 17.0376 32.1091 17.4432L32.6937 17.8541C32.9888 17.2535 33.3644 16.5366 33.7841 15.8147C34.4242 14.714 35.1985 13.5468 35.9737 12.7744C37.7927 10.9618 40.5015 9.15919 41.4534 8.68538L43.2166 7.80775C43.5734 7.63013 44.0067 7.77542 44.1843 8.13227ZM31.8385 40.5978C33.7843 40.5978 35.3616 39.0204 35.3616 37.0746C35.3616 35.1287 33.7843 33.5513 31.8385 33.5513C29.8927 33.5513 28.3153 35.1287 28.3153 37.0746C28.3153 39.0204 29.8927 40.5978 31.8385 40.5978ZM14.8567 48.5079C14.8676 48.5093 14.8785 48.5104 14.8896 48.5112C14.9937 48.5194 15.0943 48.5051 15.1868 48.4724C15.7506 48.3687 16.8729 48.0878 17.8226 47.5938C18.8632 47.0525 19.5679 46.3235 19.824 45.9704C20.058 45.6477 19.9862 45.1964 19.6635 44.9623C19.3408 44.7283 18.8895 44.8002 18.6555 45.1229C18.5262 45.3012 17.9912 45.879 17.1565 46.3132C16.7049 46.5481 16.1894 46.7291 15.744 46.8568L15.814 45.9692C15.8909 45.8388 15.9276 45.6831 15.9091 45.5211C15.9018 45.457 15.8863 45.3958 15.8637 45.3385L16.0655 42.7799C16.3306 42.5474 16.6761 42.2514 17.0244 41.9662C17.4906 41.5845 17.9192 41.2577 18.1683 41.1111C18.6402 40.8333 19.3215 40.7137 19.593 40.6951C19.9907 40.6678 20.291 40.3234 20.2638 39.9257C20.2365 39.528 19.8921 39.2277 19.4944 39.2549C19.111 39.2812 18.1787 39.43 17.4361 39.8671C17.0779 40.0779 16.569 40.4734 16.1099 40.8493C15.6379 41.2358 15.1734 41.6393 14.888 41.8944L14.6722 42.0873L14.6494 42.3758L14.4463 44.9512C13.7738 45.0083 12.9083 45.0578 12.0112 45.0642C10.7654 45.073 9.52186 44.9976 8.65194 44.7723C6.31442 44.167 3.52751 42.8146 2.76707 42.3216L1.11441 41.2503C0.779937 41.0335 0.333022 41.1289 0.116201 41.4634C-0.100621 41.7979 -0.00524321 42.2448 0.329232 42.4616L1.98189 43.5329C2.87409 44.1113 5.80419 45.526 8.29007 46.1698C9.34951 46.4441 10.7483 46.5167 12.0215 46.5077C12.8563 46.5018 13.6643 46.4603 14.3314 46.4087L14.2751 47.122C13.8438 47.1891 13.3108 47.3209 12.843 47.5642C12.0677 47.9675 11.5959 48.3004 11.2497 48.602C11.079 48.7506 10.9466 48.8851 10.8367 48.9981L10.8116 49.0239C10.7111 49.1272 10.6388 49.2016 10.5568 49.2742C10.2583 49.5385 10.2306 49.9946 10.4948 50.2931C10.759 50.5915 11.2151 50.6193 11.5136 50.355C11.6383 50.2446 11.748 50.1316 11.8419 50.0349L11.8712 50.0048C11.9753 49.8978 12.0739 49.7984 12.1979 49.6904C12.441 49.4786 12.813 49.2069 13.5092 48.8448C13.9447 48.6182 14.5418 48.5274 14.8567 48.5079ZM6.95554 58.0221C6.60955 57.8241 6.48953 57.3832 6.68746 57.0372C7.32988 55.9142 9.34916 53.3158 12.5061 51.4575C14.4456 50.3158 16.2054 49.5413 17.7487 48.8898C17.9416 48.8084 18.1302 48.7292 18.3148 48.6517L18.3236 48.648L18.3277 48.6463C19.6319 48.0989 20.7332 47.6366 21.6819 47.0782C22.5307 46.5785 23.4695 45.8256 24.2901 45.0527C25.1161 44.2746 25.774 43.5218 26.0856 43.0413C26.3024 42.7068 26.7493 42.6114 27.0838 42.8282C27.4183 43.045 27.5136 43.4919 27.2968 43.8264C26.8941 44.4476 26.1413 45.2919 25.2798 46.1034C24.4128 46.9201 23.3871 47.7494 22.4142 48.3222C21.3749 48.9339 20.1734 49.4378 18.8818 49.9794L18.8818 49.9794L18.8817 49.9794C18.693 50.0585 18.5024 50.1385 18.3101 50.2196C16.7836 50.8641 15.0941 51.6091 13.2383 52.7015C10.3229 54.4177 8.47334 56.8223 7.9404 57.754C7.74247 58.1 7.30153 58.22 6.95554 58.0221ZM4.97644 63.94C6.19258 63.94 7.17845 62.9541 7.17845 61.738C7.17845 60.5218 6.19258 59.5359 4.97644 59.5359C3.76031 59.5359 2.77443 60.5218 2.77443 61.738C2.77443 62.9541 3.76031 63.94 4.97644 63.94ZM48.9214 47.6454C48.9261 47.6561 48.9305 47.6668 48.9346 47.6775C49.1005 47.946 49.4622 48.4294 49.8673 48.7064C50.5151 49.1493 50.9301 49.3492 51.2316 49.4636C51.3853 49.5219 51.5195 49.5619 51.6629 49.6032L51.7033 49.6148C51.8328 49.652 51.9842 49.6954 52.1405 49.7533C52.5143 49.8917 52.705 50.307 52.5666 50.6808C52.4281 51.0546 52.0129 51.2453 51.6391 51.1069C51.5364 51.0689 51.4367 51.0402 51.2982 51.0003L51.2981 51.0003L51.2635 50.9904C51.1121 50.9468 50.931 50.8935 50.7194 50.8132C50.2902 50.6502 49.774 50.3913 49.0526 49.898C48.6169 49.6001 48.2489 49.1918 47.9862 48.8429L47.3314 49.1295C47.6918 49.6936 48.1099 50.3867 48.5092 51.1203C49.118 52.2387 49.714 53.5062 49.972 54.5698C50.5775 57.0653 50.7128 60.3163 50.6239 61.3759L50.4593 63.3386C50.4259 63.7358 50.0769 64.0308 49.6797 63.9974C49.2825 63.9641 48.9875 63.6151 49.0208 63.2178L49.1855 61.2552C49.2613 60.3521 49.1386 57.2567 48.5692 54.9101C48.3573 54.0368 47.8371 52.9048 47.2414 51.8105C46.8123 51.0222 46.36 50.2821 45.9922 49.716L43.6255 50.7523L43.3604 50.8683L43.0885 50.7691C42.7289 50.6379 42.1541 50.4187 41.5905 50.1848C41.0425 49.9574 40.4537 49.6953 40.0988 49.479C39.363 49.0306 38.7919 48.2788 38.5878 47.9531C38.3762 47.6153 38.4784 47.1699 38.8162 46.9583C39.1539 46.7466 39.5993 46.8488 39.811 47.1866C39.9555 47.4172 40.3825 47.9615 40.85 48.2464C41.0968 48.3969 41.5872 48.6206 42.1437 48.8516C42.5595 49.0241 42.9835 49.189 43.3135 49.313L45.6669 48.2826C45.7064 48.2364 45.7525 48.1944 45.8049 48.1582C45.9384 48.0659 46.092 48.0247 46.2426 48.0305L47.059 47.673C46.7365 47.3408 46.3341 46.9722 45.9143 46.6852C45.1376 46.1541 44.3757 45.955 44.1575 45.9251C43.7626 45.8711 43.4863 45.5071 43.5403 45.1122C43.5944 44.7172 43.9584 44.4409 44.3533 44.495C44.7855 44.5542 45.7607 44.8315 46.729 45.4936C47.6106 46.0963 48.3862 46.9506 48.7447 47.3996C48.8182 47.4661 48.8791 47.5488 48.9214 47.6454ZM60.3094 50.8554C60.7078 50.8667 61.04 50.5528 61.0512 50.1543C61.0624 49.7559 60.7485 49.4238 60.3501 49.4125C59.2772 49.3822 56.2845 48.8862 53.3957 47.1255C51.5569 46.0047 50.1029 44.8666 48.8144 43.8248C48.6521 43.6936 48.4916 43.5632 48.3329 43.4342L48.3328 43.4341C47.2459 42.551 46.2347 41.7293 45.2049 41.1016C44.2409 40.5141 43.0257 40.0011 41.8966 39.622C40.7746 39.2453 39.675 38.98 38.9373 38.9181C38.5401 38.8847 38.1911 39.1797 38.1577 39.5769C38.1244 39.9741 38.4194 40.3232 38.8166 40.3565C39.3873 40.4044 40.3614 40.6293 41.4372 40.9904C42.5058 41.3492 43.6126 41.8216 44.4537 42.3342C45.3937 42.9072 46.3209 43.6601 47.4188 44.5516L47.4189 44.5517C47.5778 44.6807 47.7402 44.8126 47.9068 44.9473C49.2095 46.0006 50.7227 47.1868 52.6445 48.3581C55.7725 50.2646 59.0161 50.8189 60.3094 50.8554ZM63.6748 47.9479C64.747 47.374 66.0814 47.7781 66.6553 48.8503C67.2292 49.9226 66.8251 51.257 65.7529 51.8309C64.6807 52.4048 63.3463 52.0008 62.7724 50.9285C62.1986 49.8562 62.6026 48.5218 63.6748 47.9479Z" fill="#212121"/>
</svg>
