<svg width="292" height="282" viewBox="0 0 292 282" fill="none" xmlns="http://www.w3.org/2000/svg">
<path fill-rule="evenodd" clip-rule="evenodd" d="M89.8127 22.6081C87.7895 27.0173 89.7236 32.232 94.1328 34.2554C98.5419 36.2788 103.756 34.3448 105.78 29.9355C107.803 25.5263 105.869 20.3116 101.46 18.2882C97.0506 16.2648 91.836 18.1989 89.8127 22.6081ZM107.257 38.8916C108.55 37.9665 110.348 38.2649 111.273 39.5582C114.276 43.7558 120.337 55.3999 121.822 69.9376C122.734 78.869 122.614 86.5379 122.409 93.2175C122.382 94.0716 122.355 94.9059 122.328 95.7219C122.143 101.361 121.986 106.123 122.433 110.492C122.832 114.401 124 119.057 125.437 123.318C126.883 127.608 128.518 131.245 129.742 133.174C130.594 134.517 130.196 136.296 128.854 137.148C127.511 138 125.732 137.602 124.88 136.26C123.298 133.766 121.489 129.632 119.981 125.158C118.462 120.656 117.162 115.558 116.704 111.077C116.215 106.291 116.388 101.096 116.573 95.5124C116.6 94.6967 116.627 93.8727 116.653 93.0404C116.856 86.4337 116.966 79.0685 116.093 70.5228C114.722 57.0971 109.081 46.3906 106.59 42.9083C105.665 41.6151 105.963 39.8167 107.257 38.8916ZM178.666 41.6461C179.518 42.9886 179.12 44.7676 177.778 45.6196L171.144 49.8291C168.092 51.7661 158.552 59.6203 152.469 67.0882C150.205 69.8675 147.862 74.2506 145.822 78.7823C144.352 82.0453 143.092 85.2656 142.18 87.7991L151.182 92.8222L152.19 93.3846L152.531 94.4878C152.981 95.947 153.671 98.3023 154.286 100.657C154.885 102.947 155.472 105.45 155.641 107.099C155.99 110.519 154.979 114.146 154.436 115.58C153.873 117.067 152.211 117.817 150.724 117.254C149.237 116.691 148.488 115.029 149.051 113.542C149.435 112.527 150.135 109.857 149.913 107.684C149.795 106.537 149.324 104.439 148.716 102.114C148.261 100.377 147.763 98.6316 147.361 97.2839L138.418 92.2937C138.172 92.28 137.925 92.2345 137.68 92.1544C137.062 91.9519 136.558 91.5599 136.213 91.0639L133.116 89.3354C132.838 91.1616 132.637 93.33 132.737 95.3564C132.923 99.1053 134.127 102.006 134.559 102.772C135.339 104.157 134.849 105.913 133.464 106.694C132.078 107.474 130.322 106.984 129.542 105.598C128.688 104.082 127.217 100.315 126.986 95.641C126.775 91.3775 127.623 86.8428 128.185 84.6255C128.221 84.2363 128.336 83.848 128.539 83.4848C128.551 83.4641 128.562 83.4435 128.574 83.4232C128.584 83.407 128.594 83.3909 128.603 83.375C129.057 82.2034 129.724 79.8814 129.627 77.9208C129.472 74.7941 129.107 72.9934 128.743 71.7596C128.558 71.1302 128.361 70.6073 128.147 70.0521L128.086 69.8959L128.086 69.8958C127.892 69.3945 127.665 68.8087 127.472 68.1728C127.01 66.6511 127.87 65.0436 129.392 64.5822C130.913 64.1207 132.521 64.9802 132.982 66.5019C133.109 66.92 133.258 67.3062 133.466 67.8425L133.518 67.9763C133.744 68.5628 134.012 69.2666 134.267 70.1327C134.784 71.8896 135.206 74.1542 135.378 77.6362C135.482 79.7387 135.073 81.8923 134.598 83.5683L137.087 84.9573C138.01 82.4529 139.204 79.4544 140.571 76.418C142.657 71.7867 145.247 66.8362 148.004 63.4515C154.474 55.5096 164.478 47.2398 168.059 44.9673L174.693 40.7577C176.035 39.9058 177.814 40.3035 178.666 41.6461ZM143.076 175.55C150.796 174.747 156.404 167.838 155.601 160.117C154.798 152.397 147.889 146.789 140.169 147.592C132.448 148.394 126.841 155.304 127.644 163.024C128.446 170.745 135.355 176.353 143.076 175.55ZM78.9647 213.941C79.0074 213.941 79.0503 213.941 79.0935 213.94C79.5087 213.93 79.9013 213.832 80.2539 213.665C82.4469 213.022 86.7864 211.444 90.3523 209.091C94.2578 206.514 96.7531 203.331 97.6235 201.824C98.4189 200.447 97.9476 198.686 96.5708 197.891C95.194 197.095 93.4331 197.566 92.6377 198.943C92.1981 199.704 90.3137 202.217 87.181 204.285C85.4863 205.403 83.5155 206.334 81.8011 207.024L81.7125 203.465C81.9613 202.917 82.0413 202.288 81.9016 201.655C81.8467 201.406 81.7612 201.173 81.65 200.956L81.3949 190.715C82.3506 189.684 83.5993 188.366 84.8635 187.091C86.5557 185.384 88.1218 183.911 89.0496 183.226C90.8073 181.93 93.461 181.174 94.5306 180.988C96.0972 180.716 97.1466 179.225 96.8745 177.659C96.6024 176.092 95.1119 175.043 93.5453 175.315C92.0347 175.577 88.3972 176.552 85.6312 178.593C84.2971 179.577 82.4411 181.356 80.7746 183.037C79.0611 184.765 77.3845 186.558 76.3574 187.688L75.5809 188.542L75.6096 189.696L75.8662 199.997C73.2208 200.501 69.8059 201.055 66.2478 201.45C61.3084 201.999 56.3433 202.213 52.7988 201.678C43.2746 200.241 31.6592 196.025 28.4386 194.382L21.4395 190.814C20.023 190.091 18.2891 190.654 17.5668 192.071C16.8446 193.487 17.4074 195.221 18.8239 195.943L25.823 199.512C29.6016 201.439 41.8109 205.843 51.9396 207.372C56.2562 208.023 61.8359 207.734 66.8839 207.173C70.1951 206.805 73.3852 206.307 76.0114 205.827L76.0826 208.682C74.3989 209.126 72.3384 209.869 70.583 211.027C67.6731 212.948 65.9383 214.463 64.6892 215.802C64.0734 216.463 63.6035 217.051 63.214 217.544L63.1251 217.657L63.125 217.657C62.769 218.109 62.5126 218.434 62.2172 218.756C61.1421 219.927 61.2201 221.748 62.3916 222.824C63.5631 223.899 65.3843 223.821 66.4595 222.649C66.9087 222.16 67.2973 221.666 67.6299 221.244L67.6301 221.244L67.6302 221.243L67.7339 221.112C68.1026 220.645 68.4528 220.209 68.9002 219.73C69.7774 218.789 71.1414 217.558 73.7542 215.834C75.3902 214.754 77.724 214.147 78.9647 213.941ZM51.5377 254.949C50.0833 254.307 49.4252 252.607 50.0677 251.152C52.1534 246.432 59.0933 235.289 70.8523 226.614C78.0765 221.284 84.7393 217.485 90.5939 214.263C91.3373 213.854 92.0645 213.456 92.7757 213.066L92.7907 213.058C97.7393 210.348 101.918 208.06 105.452 205.453C108.614 203.12 112.028 199.745 114.965 196.34C117.921 192.912 120.221 189.654 121.259 187.619C121.981 186.202 123.715 185.639 125.131 186.362C126.548 187.084 127.111 188.818 126.389 190.234C125.047 192.865 122.409 196.526 119.325 200.101C116.222 203.699 112.495 207.412 108.871 210.086C104.999 212.942 100.44 215.437 95.5387 218.119L95.531 218.123L95.5185 218.13C94.8091 218.518 94.0926 218.91 93.37 219.308C87.5792 222.495 81.183 226.147 74.2707 231.247C63.4113 239.259 57.0649 249.563 55.3347 253.479C54.6921 254.934 52.9921 255.592 51.5377 254.949ZM46.1256 279.246C50.9508 278.744 54.4556 274.426 53.9539 269.6C53.4522 264.775 49.1339 261.27 44.3087 261.772C39.4834 262.274 35.9786 266.592 36.4803 271.417C36.982 276.243 41.3003 279.748 46.1256 279.246ZM213.762 196.464C213.782 196.499 213.8 196.533 213.818 196.568C214.581 197.561 216.225 199.345 217.957 200.283C220.71 201.773 222.439 202.395 223.682 202.724C224.316 202.893 224.865 202.996 225.451 203.101L225.616 203.13C226.146 203.224 226.764 203.334 227.408 203.499C228.948 203.894 229.876 205.463 229.481 207.003C229.086 208.543 227.517 209.472 225.977 209.076C225.554 208.968 225.147 208.895 224.581 208.794L224.58 208.794L224.439 208.769C223.82 208.658 223.08 208.522 222.207 208.29C220.437 207.821 218.282 207.006 215.216 205.347C213.364 204.344 211.735 202.876 210.548 201.599L208.067 203.008C209.729 205.097 211.674 207.675 213.561 210.421C216.438 214.607 219.325 219.39 220.788 223.504C224.22 233.155 226.098 245.998 226.182 250.239L226.338 258.094C226.37 259.684 225.107 260.998 223.517 261.03C221.928 261.062 220.613 259.798 220.582 258.209L220.425 250.354C220.353 246.739 218.59 234.508 215.362 225.433C214.161 222.055 211.63 217.778 208.815 213.682C206.788 210.732 204.688 207.982 202.995 205.888L194.031 210.976L193.027 211.546L191.908 211.264C190.427 210.892 188.056 210.26 185.723 209.564C183.455 208.888 181.011 208.091 179.513 207.379C176.409 205.903 173.833 203.156 172.889 201.948C171.91 200.695 172.132 198.886 173.384 197.907C174.637 196.928 176.447 197.15 177.426 198.402C178.094 199.258 180.013 201.241 181.985 202.179C183.027 202.674 185.065 203.359 187.368 204.046C189.089 204.559 190.839 205.038 192.2 205.394L201.112 200.335C201.25 200.135 201.416 199.949 201.609 199.784C202.101 199.362 202.694 199.136 203.294 199.096L206.387 197.34C204.971 196.156 203.222 194.86 201.439 193.894C198.138 192.108 195.033 191.632 194.155 191.603C192.566 191.552 191.319 190.222 191.371 188.632C191.422 187.043 192.753 185.797 194.342 185.848C196.081 185.905 200.065 186.603 204.18 188.83C207.937 190.864 211.376 193.946 212.978 195.575C213.289 195.807 213.558 196.105 213.762 196.464ZM260.271 204.502C261.857 204.382 263.045 203 262.925 201.414C262.805 199.829 261.423 198.64 259.837 198.76C255.568 199.083 243.489 198.349 231.301 192.555C223.543 188.867 217.305 184.951 211.762 181.349C211.064 180.895 210.374 180.444 209.691 179.998C205.014 176.942 200.663 174.099 196.318 172.034C192.251 170.1 187.218 168.566 182.581 167.528C177.974 166.496 173.502 165.897 170.549 165.955C168.96 165.987 167.697 167.301 167.728 168.891C167.76 170.481 169.074 171.744 170.664 171.713C172.948 171.667 176.906 172.158 181.323 173.147C185.711 174.129 190.297 175.547 193.846 177.234C197.811 179.119 201.801 181.724 206.524 184.808L206.524 184.808L206.525 184.809L206.525 184.809L206.526 184.809C207.209 185.255 207.908 185.712 208.625 186.177C214.228 189.819 220.721 193.901 228.829 197.755C242.027 204.03 255.125 204.891 260.271 204.502ZM272.423 191.578C276.441 188.859 281.902 189.911 284.621 193.929C287.34 197.947 286.288 203.408 282.27 206.127C278.253 208.847 272.792 207.794 270.073 203.776C267.353 199.759 268.406 194.297 272.423 191.578Z" fill="white"/>
</svg>
