<svg width="1278" height="62" viewBox="0 0 1278 62" fill="none" xmlns="http://www.w3.org/2000/svg">
<g opacity="0.4">
<mask id="path-1-outside-1_158_372" maskUnits="userSpaceOnUse" x="-1" y="-1" width="1280" height="64" fill="black">
<rect fill="white" x="-1" y="-1" width="1280" height="64"/>
<path d="M0.81861 10.0003C0.81861 8.81234 1.0449 7.70918 1.49747 6.69088C1.95005 5.67259 2.54406 4.79572 3.27949 4.06029C4.01493 3.26828 4.86351 2.67427 5.82523 2.27827C6.84353 1.82569 7.91839 1.59941 9.04983 1.59941H66.923V11.6975H11.341V50.9019H66.923V61H9.38927C8.20125 61 7.06981 60.7737 5.99495 60.3211C4.97665 59.8686 4.0715 59.2746 3.27949 58.5391C2.54406 57.8037 1.95005 56.9551 1.49747 55.9934C1.0449 54.9751 0.81861 53.9002 0.81861 52.7688V10.0003ZM74.1578 1.59941H84.6802V50.9019H131.182V61H82.4739C81.2859 61 80.1827 60.7737 79.1644 60.3211C78.1461 59.8686 77.2692 59.2746 76.5338 58.5391C75.7984 57.8037 75.2044 56.9551 74.7518 55.9934C74.3558 54.9751 74.1578 53.9002 74.1578 52.7688V1.59941ZM150.293 9.74577C151.085 7.14346 152.302 5.13516 153.942 3.72086C155.583 2.30656 157.761 1.59941 160.476 1.59941H179.654C182.483 1.59941 184.746 2.33484 186.443 3.80572C188.14 5.22001 189.385 7.20003 190.177 9.74577L206.3 61H195.183L189.922 44.0284H157.506L160.137 33.9303H186.952L180.248 11.6975H160.222L145.287 61H134.085L150.293 9.74577ZM211.399 50.9019H272.327V35.7123H219.885C218.697 35.7123 217.565 35.5143 216.49 35.1183C215.472 34.6657 214.567 34.0717 213.775 33.3363C213.04 32.5443 212.446 31.6674 211.993 30.7057C211.597 29.6874 211.399 28.6125 211.399 27.4811V9.91549C211.399 8.67091 211.625 7.53947 212.078 6.52117C212.53 5.50287 213.124 4.62601 213.86 3.89057C214.652 3.15514 215.529 2.58942 216.49 2.19341C217.509 1.79741 218.555 1.59941 219.63 1.59941H276.23V11.6975H221.921V25.6142H274.364C275.552 25.6142 276.655 25.8405 277.673 26.2931C278.691 26.7457 279.568 27.3397 280.304 28.0751C281.096 28.8105 281.718 29.6874 282.171 30.7057C282.623 31.724 282.849 32.7706 282.849 33.8454V52.6839C282.849 55.1165 282.029 57.1248 280.389 58.7088C278.748 60.2363 276.796 61 274.533 61H211.399V50.9019ZM290.456 1.59941H300.979V25.6142H349.687V1.59941H360.209V61H349.687V35.7123H300.979V61H290.456V1.59941ZM463.25 50.9019V11.6975H412.759V50.9019H463.25ZM402.237 9.91549C402.237 8.72748 402.435 7.62432 402.831 6.60603C403.283 5.58773 403.877 4.71087 404.613 3.97543C405.405 3.23999 406.282 2.67427 407.243 2.27827C408.205 1.82569 409.252 1.59941 410.383 1.59941H465.201C466.389 1.59941 467.492 1.82569 468.511 2.27827C469.586 2.73085 470.491 3.35314 471.226 4.14515C472.018 4.88058 472.64 5.75745 473.093 6.77574C473.546 7.79404 473.772 8.86891 473.772 10.0003V52.5142C473.772 53.7022 473.546 54.8337 473.093 55.9085C472.64 56.9268 472.018 57.832 471.226 58.624C470.491 59.3594 469.614 59.9534 468.596 60.406C467.634 60.802 466.587 61 465.456 61H410.807C409.619 61 408.488 60.7737 407.413 60.3211C406.395 59.8686 405.49 59.2746 404.698 58.5391C403.962 57.7471 403.368 56.8702 402.916 55.9085C402.463 54.8902 402.237 53.8154 402.237 52.6839V9.91549ZM481.801 10.0003C481.801 8.81234 482.027 7.70918 482.48 6.69088C482.932 5.67259 483.526 4.79572 484.262 4.06029C484.997 3.26828 485.846 2.67427 486.808 2.27827C487.826 1.82569 488.901 1.59941 490.032 1.59941H540.183V11.6975H492.323V30.3663H533.395V40.4644H492.323V61H481.801V10.0003ZM576.709 50.9019H598.009V11.6975H576.709V1.59941H631.188V11.6975H608.531V50.9019H631.188V61H576.709V50.9019ZM637.098 13.1401C637.098 11.3864 637.211 9.77406 637.437 8.30319C637.72 6.77575 638.173 5.47459 638.795 4.39972C639.417 3.26828 640.237 2.39141 641.256 1.76912C642.331 1.09026 643.632 0.750826 645.159 0.750826C647.139 0.750826 648.865 1.25997 650.336 2.27827C651.806 3.24 653.362 4.59772 655.003 6.35145L695.48 48.7804V1.59941H706.002V49.4593C706.002 51.1565 705.861 52.7688 705.578 54.2962C705.352 55.7671 704.928 57.0682 704.305 58.1997C703.683 59.3311 702.834 60.2363 701.759 60.9151C700.741 61.5374 699.44 61.8486 697.856 61.8486C695.763 61.8486 694.037 61.3677 692.68 60.406C691.322 59.3877 689.795 58.0017 688.097 56.248L647.62 13.9038V61H637.098V13.1401ZM743.071 11.6975H712.522V1.59941H784.057V11.6975H753.593V61H743.071V11.6975ZM790.147 10.0003C790.147 8.81234 790.373 7.70918 790.826 6.69088C791.278 5.67259 791.872 4.79572 792.608 4.06029C793.343 3.26828 794.192 2.67427 795.154 2.27827C796.172 1.82569 797.247 1.59941 798.378 1.59941H853.96V11.6975H800.669V25.6142H847.087V35.7123H800.669V50.9019H853.96V61H798.718C797.53 61 796.398 60.7737 795.323 60.3211C794.305 59.8686 793.4 59.2746 792.608 58.5391C791.872 57.8037 791.278 56.9551 790.826 55.9934C790.373 54.9751 790.147 53.9002 790.147 52.7688V10.0003ZM861.166 1.59941H871.688V50.9019H918.19V61H869.482C868.294 61 867.191 60.7737 866.173 60.3211C865.154 59.8686 864.277 59.2746 863.542 58.5391C862.806 57.8037 862.212 56.9551 861.76 55.9934C861.364 54.9751 861.166 53.9002 861.166 52.7688V1.59941ZM922.821 1.59941H933.343V50.9019H979.845V61H931.137C929.949 61 928.845 60.7737 927.827 60.3211C926.809 59.8686 925.932 59.2746 925.197 58.5391C924.461 57.8037 923.867 56.9551 923.415 55.9934C923.019 54.9751 922.821 53.9002 922.821 52.7688V1.59941ZM984.475 10.0003C984.475 8.81234 984.701 7.70918 985.154 6.69088C985.607 5.67259 986.201 4.79572 986.936 4.06029C987.671 3.26828 988.52 2.67427 989.482 2.27827C990.5 1.82569 991.575 1.59941 992.706 1.59941H1048.29V11.6975H994.998V25.6142H1041.41V35.7123H994.998V50.9019H1048.29V61H993.046C991.858 61 990.726 60.7737 989.652 60.3211C988.633 59.8686 987.728 59.2746 986.936 58.5391C986.201 57.8037 985.607 56.9551 985.154 55.9934C984.701 54.9751 984.475 53.9002 984.475 52.7688V10.0003ZM1055.49 10.0003C1055.49 8.81234 1055.72 7.70918 1056.17 6.69088C1056.63 5.67259 1057.22 4.79572 1057.95 4.06029C1058.69 3.26828 1059.54 2.67427 1060.5 2.27827C1061.52 1.82569 1062.59 1.59941 1063.73 1.59941H1121.6V11.6975H1066.02V50.9019H1121.6V61H1064.06C1062.88 61 1061.75 60.7737 1060.67 60.3211C1059.65 59.8686 1058.75 59.2746 1057.95 58.5391C1057.22 57.8037 1056.63 56.9551 1056.17 55.9934C1055.72 54.9751 1055.49 53.9002 1055.49 52.7688V10.0003ZM1157.83 11.6975H1127.28V1.59941H1198.82V11.6975H1168.35V61H1157.83V11.6975ZM1205.58 50.9019H1266.51V35.7123H1214.07C1212.88 35.7123 1211.75 35.5143 1210.67 35.1183C1209.65 34.6657 1208.75 34.0717 1207.96 33.3363C1207.22 32.5443 1206.63 31.6674 1206.17 30.7057C1205.78 29.6874 1205.58 28.6125 1205.58 27.4811V9.91549C1205.58 8.67091 1205.81 7.53947 1206.26 6.52117C1206.71 5.50287 1207.31 4.62601 1208.04 3.89057C1208.83 3.15514 1209.71 2.58942 1210.67 2.19341C1211.69 1.79741 1212.74 1.59941 1213.81 1.59941H1270.41V11.6975H1216.1V25.6142H1268.54C1269.73 25.6142 1270.84 25.8405 1271.85 26.2931C1272.87 26.7457 1273.75 27.3397 1274.48 28.0751C1275.28 28.8105 1275.9 29.6874 1276.35 30.7057C1276.8 31.724 1277.03 32.7706 1277.03 33.8454V52.6839C1277.03 55.1165 1276.21 57.1248 1274.57 58.7088C1272.93 60.2363 1270.98 61 1268.71 61H1205.58V50.9019Z"/>
</mask>
<path d="M3.27949 4.06029L3.9866 4.7674L3.99969 4.75431L4.01229 4.74074L3.27949 4.06029ZM5.82523 2.27827L6.20598 3.20295L6.21875 3.19769L6.23137 3.19208L5.82523 2.27827ZM66.923 1.59941H67.923V0.599405H66.923V1.59941ZM66.923 11.6975V12.6975H67.923V11.6975H66.923ZM11.341 11.6975V10.6975H10.341V11.6975H11.341ZM11.341 50.9019H10.341V51.9019H11.341V50.9019ZM66.923 50.9019H67.923V49.9019H66.923V50.9019ZM66.923 61V62H67.923V61H66.923ZM5.99495 60.3211L5.58881 61.2349L5.59781 61.2389L5.60689 61.2428L5.99495 60.3211ZM3.27949 58.5391L2.57238 59.2462L2.58547 59.2593L2.59904 59.2719L3.27949 58.5391ZM1.49747 55.9934L0.583662 56.3995L0.588052 56.4094L0.592655 56.4192L1.49747 55.9934ZM1.81861 10.0004C1.81861 8.94285 2.01923 7.97914 2.41128 7.09702L0.583662 6.28475C0.0705607 7.43922 -0.181391 8.68182 -0.181391 10.0004H1.81861ZM2.41128 7.09702C2.8176 6.18282 3.34398 5.41001 3.9866 4.7674L2.57239 3.35318C1.74413 4.18144 1.0825 5.16236 0.583662 6.28475L2.41128 7.09702ZM4.01229 4.74074C4.65335 4.05036 5.38314 3.54177 6.20598 3.20295L5.44448 1.35359C4.34387 1.80678 3.37651 2.4862 2.5467 3.37984L4.01229 4.74074ZM6.23137 3.19208C7.1198 2.79722 8.0561 2.59941 9.04983 2.59941V0.599405C7.78069 0.599405 6.56725 0.854166 5.41909 1.36446L6.23137 3.19208ZM9.04983 2.59941H66.923V0.599405H9.04983V2.59941ZM65.923 1.59941V11.6975H67.923V1.59941H65.923ZM66.923 10.6975H11.341V12.6975H66.923V10.6975ZM10.341 11.6975V50.9019H12.341V11.6975H10.341ZM11.341 51.9019H66.923V49.9019H11.341V51.9019ZM65.923 50.9019V61H67.923V50.9019H65.923ZM66.923 60H9.38927V62H66.923V60ZM9.38927 60C8.33199 60 7.33271 59.7994 6.383 59.3995L5.60689 61.2428C6.80692 61.748 8.07052 62 9.38927 62V60ZM6.40109 59.4073C5.48042 58.9981 4.66862 58.4644 3.95994 57.8063L2.59904 59.2719C3.47438 60.0847 4.47289 60.739 5.58881 61.2349L6.40109 59.4073ZM3.9866 57.832C3.33462 57.18 2.8068 56.4272 2.40229 55.5676L0.592655 56.4192C1.0933 57.483 1.75349 58.4273 2.57238 59.2462L3.9866 57.832ZM2.41128 55.5872C2.01643 54.6988 1.81861 53.7625 1.81861 52.7688H-0.181391C-0.181391 54.0379 0.0733685 55.2514 0.583662 56.3995L2.41128 55.5872ZM1.81861 52.7688V10.0004H-0.181391V52.7688H1.81861ZM74.1578 1.59941V0.599405H73.1578V1.59941H74.1578ZM84.6802 1.59941H85.6802V0.599405H84.6802V1.59941ZM84.6802 50.9019H83.6802V51.9019H84.6802V50.9019ZM131.182 50.9019H132.182V49.9019H131.182V50.9019ZM131.182 61V62H132.182V61H131.182ZM79.1644 60.3211L78.7583 61.2349L79.1644 60.3211ZM76.5338 58.5391L77.2409 57.832L76.5338 58.5391ZM74.7518 55.9934L73.8198 56.3558L73.8323 56.388L73.847 56.4192L74.7518 55.9934ZM74.1578 2.59941H84.6802V0.599405H74.1578V2.59941ZM83.6802 1.59941V50.9019H85.6802V1.59941H83.6802ZM84.6802 51.9019H131.182V49.9019H84.6802V51.9019ZM130.182 50.9019V61H132.182V50.9019H130.182ZM131.182 60H82.4739V62H131.182V60ZM82.4739 60C81.4164 60 80.4527 59.7994 79.5705 59.4073L78.7583 61.2349C79.9128 61.748 81.1553 62 82.4739 62V60ZM79.5705 59.4073C78.6563 59.001 77.8835 58.4746 77.2409 57.832L75.8267 59.2462C76.655 60.0745 77.6359 60.7361 78.7583 61.2349L79.5705 59.4073ZM77.2409 57.832C76.5889 57.18 76.0611 56.4272 75.6566 55.5676L73.847 56.4192C74.3476 57.483 75.0078 58.4273 75.8267 59.2462L77.2409 57.832ZM75.6838 55.6309C75.3343 54.7323 75.1578 53.7807 75.1578 52.7688H73.1578C73.1578 54.0197 73.3773 55.2179 73.8198 56.3558L75.6838 55.6309ZM75.1578 52.7688V1.59941H73.1578V52.7688H75.1578ZM150.293 9.74577L151.247 10.0473L151.25 10.0369L150.293 9.74577ZM153.942 3.72086L154.595 4.47827L153.942 3.72086ZM186.443 3.80572L185.788 4.5614L185.795 4.56774L185.803 4.57394L186.443 3.80572ZM190.177 9.74577L189.222 10.0428L189.223 10.0458L190.177 9.74577ZM206.3 61V62H207.662L207.253 60.6999L206.3 61ZM195.183 61L194.228 61.2961L194.446 62H195.183V61ZM189.922 44.0284L190.877 43.7323L190.659 43.0284H189.922V44.0284ZM157.506 44.0284L156.539 43.7763L156.212 45.0284H157.506V44.0284ZM160.137 33.9303V32.9303H159.364L159.169 33.6782L160.137 33.9303ZM186.952 33.9303V34.9303H188.298L187.909 33.6416L186.952 33.9303ZM180.248 11.6975L181.206 11.4088L180.991 10.6975H180.248V11.6975ZM160.222 11.6975V10.6975H159.48L159.265 11.4076L160.222 11.6975ZM145.287 61V62H146.029L146.244 61.2899L145.287 61ZM134.085 61L133.132 60.6985L132.72 62H134.085V61ZM151.25 10.0369C152.001 7.56957 153.13 5.74095 154.595 4.47827L153.289 2.96345C151.473 4.52937 150.17 6.71735 149.337 9.45461L151.25 10.0369ZM154.595 4.47827C156.012 3.25709 157.938 2.59941 160.476 2.59941V0.599405C157.584 0.599405 155.154 1.35603 153.289 2.96345L154.595 4.47827ZM160.476 2.59941H179.654V0.599405H160.476V2.59941ZM179.654 2.59941C182.307 2.59941 184.316 3.2857 185.788 4.5614L187.098 3.05003C185.175 1.38398 182.659 0.599405 179.654 0.599405V2.59941ZM185.803 4.57394C187.323 5.84133 188.475 7.64275 189.222 10.0428L191.131 9.44871C190.294 6.75732 188.956 4.5987 187.083 3.03749L185.803 4.57394ZM189.223 10.0458L205.346 61.3001L207.253 60.6999L191.13 9.4457L189.223 10.0458ZM206.3 60H195.183V62H206.3V60ZM196.138 60.7039L190.877 43.7323L188.967 44.3245L194.228 61.2961L196.138 60.7039ZM189.922 43.0284H157.506V45.0284H189.922V43.0284ZM158.474 44.2805L161.105 34.1824L159.169 33.6782L156.539 43.7763L158.474 44.2805ZM160.137 34.9303H186.952V32.9303H160.137V34.9303ZM187.909 33.6416L181.206 11.4088L179.291 11.9862L185.995 34.219L187.909 33.6416ZM180.248 10.6975H160.222V12.6975H180.248V10.6975ZM159.265 11.4076L144.33 60.7101L146.244 61.2899L161.179 11.9874L159.265 11.4076ZM145.287 60H134.085V62H145.287V60ZM135.039 61.3015L151.247 10.0473L149.34 9.44426L133.132 60.6985L135.039 61.3015ZM211.399 50.9019V49.9019H210.399V50.9019H211.399ZM272.327 50.9019V51.9019H273.327V50.9019H272.327ZM272.327 35.7123H273.327V34.7123H272.327V35.7123ZM216.49 35.1183L216.084 36.0321L216.114 36.0454L216.145 36.0567L216.49 35.1183ZM213.775 33.3363L213.042 34.0167L213.067 34.0439L213.095 34.0691L213.775 33.3363ZM211.993 30.7057L211.061 31.0681L211.074 31.1003L211.088 31.1315L211.993 30.7057ZM212.078 6.52117L212.992 6.92731L212.078 6.52117ZM213.86 3.89057L213.179 3.15778L213.166 3.17038L213.153 3.18347L213.86 3.89057ZM216.49 2.19341L216.128 1.26141L216.119 1.26498L216.11 1.26874L216.49 2.19341ZM276.23 1.59941H277.23V0.599405H276.23V1.59941ZM276.23 11.6975V12.6975H277.23V11.6975H276.23ZM221.921 11.6975V10.6975H220.921V11.6975H221.921ZM221.921 25.6142H220.921V26.6142H221.921V25.6142ZM277.673 26.2931L277.267 27.2069L277.673 26.2931ZM280.304 28.0751L279.597 28.7822L279.61 28.7953L279.623 28.8079L280.304 28.0751ZM282.171 30.7057L283.084 30.2996V30.2996L282.171 30.7057ZM280.389 58.7088L281.07 59.4407L281.077 59.4345L281.083 59.4282L280.389 58.7088ZM211.399 61H210.399V62H211.399V61ZM211.399 51.9019H272.327V49.9019H211.399V51.9019ZM273.327 50.9019V35.7123H271.327V50.9019H273.327ZM272.327 34.7123H219.885V36.7123H272.327V34.7123ZM219.885 34.7123C218.81 34.7123 217.796 34.5337 216.836 34.18L216.145 36.0567C217.334 36.4949 218.583 36.7123 219.885 36.7123V34.7123ZM216.897 34.2045C215.976 33.7953 215.164 33.2616 214.455 32.6035L213.095 34.0691C213.97 34.8819 214.968 35.5362 216.084 36.0321L216.897 34.2045ZM214.508 32.6558C213.841 31.9381 213.306 31.1468 212.898 30.2799L211.088 31.1315C211.585 32.188 212.238 33.1505 213.042 34.0167L214.508 32.6558ZM212.925 30.3433C212.576 29.4446 212.399 28.493 212.399 27.4811H210.399C210.399 28.732 210.618 29.9302 211.061 31.0681L212.925 30.3433ZM212.399 27.4811V9.91549H210.399V27.4811H212.399ZM212.399 9.91549C212.399 8.79441 212.602 7.80356 212.992 6.92731L211.164 6.11503C210.648 7.27538 210.399 8.5474 210.399 9.91549H212.399ZM212.992 6.92731C213.398 6.0131 213.924 5.2403 214.567 4.59768L213.153 3.18347C212.325 4.01172 211.663 4.99265 211.164 6.11503L212.992 6.92731ZM214.54 4.62337C215.248 3.96606 216.024 3.46679 216.871 3.11809L216.11 1.26874C215.033 1.71204 214.056 2.34421 213.179 3.15778L214.54 4.62337ZM216.853 3.12542C217.758 2.77359 218.681 2.59941 219.63 2.59941V0.599405C218.429 0.599405 217.26 0.821222 216.128 1.26141L216.853 3.12542ZM219.63 2.59941H276.23V0.599405H219.63V2.59941ZM275.23 1.59941V11.6975H277.23V1.59941H275.23ZM276.23 10.6975H221.921V12.6975H276.23V10.6975ZM220.921 11.6975V25.6142H222.921V11.6975H220.921ZM221.921 26.6142H274.364V24.6142H221.921V26.6142ZM274.364 26.6142C275.421 26.6142 276.385 26.8148 277.267 27.2069L278.079 25.3793C276.925 24.8662 275.682 24.6142 274.364 24.6142V26.6142ZM277.267 27.2069C278.181 27.6132 278.954 28.1396 279.597 28.7822L281.011 27.368C280.183 26.5397 279.202 25.8781 278.079 25.3793L277.267 27.2069ZM279.623 28.8079C280.313 29.4485 280.857 30.2132 281.257 31.1118L283.084 30.2996C282.579 29.1616 281.878 28.1726 280.984 27.3423L279.623 28.8079ZM281.257 31.1118C281.655 32.0071 281.849 32.9157 281.849 33.8454H283.849C283.849 32.6255 283.592 31.4409 283.084 30.2996L281.257 31.1118ZM281.849 33.8454V52.6839H283.849V33.8454H281.849ZM281.849 52.6839C281.849 54.8654 281.125 56.6074 279.694 57.9894L281.083 59.4282C282.933 57.6422 283.849 55.3676 283.849 52.6839H281.849ZM279.707 57.9769C278.254 59.3303 276.546 60 274.533 60V62C277.046 62 279.242 61.1423 281.07 59.4407L279.707 57.9769ZM274.533 60H211.399V62H274.533V60ZM212.399 61V50.9019H210.399V61H212.399ZM290.456 1.59941V0.599405H289.456V1.59941H290.456ZM300.979 1.59941H301.979V0.599405H300.979V1.59941ZM300.979 25.6142H299.979V26.6142H300.979V25.6142ZM349.687 25.6142V26.6142H350.687V25.6142H349.687ZM349.687 1.59941V0.599405H348.687V1.59941H349.687ZM360.209 1.59941H361.209V0.599405H360.209V1.59941ZM360.209 61V62H361.209V61H360.209ZM349.687 61H348.687V62H349.687V61ZM349.687 35.7123H350.687V34.7123H349.687V35.7123ZM300.979 35.7123V34.7123H299.979V35.7123H300.979ZM300.979 61V62H301.979V61H300.979ZM290.456 61H289.456V62H290.456V61ZM290.456 2.59941H300.979V0.599405H290.456V2.59941ZM299.979 1.59941V25.6142H301.979V1.59941H299.979ZM300.979 26.6142H349.687V24.6142H300.979V26.6142ZM350.687 25.6142V1.59941H348.687V25.6142H350.687ZM349.687 2.59941H360.209V0.599405H349.687V2.59941ZM359.209 1.59941V61H361.209V1.59941H359.209ZM360.209 60H349.687V62H360.209V60ZM350.687 61V35.7123H348.687V61H350.687ZM349.687 34.7123H300.979V36.7123H349.687V34.7123ZM299.979 35.7123V61H301.979V35.7123H299.979ZM300.979 60H290.456V62H300.979V60ZM291.456 61V1.59941H289.456V61H291.456ZM463.25 50.9019V51.9019H464.25V50.9019H463.25ZM463.25 11.6975H464.25V10.6975H463.25V11.6975ZM412.759 11.6975V10.6975H411.759V11.6975H412.759ZM412.759 50.9019H411.759V51.9019H412.759V50.9019ZM402.831 6.60603L401.917 6.19989L401.907 6.22152L401.899 6.24358L402.831 6.60603ZM404.613 3.97543L403.932 3.24264L403.919 3.25523L403.906 3.26832L404.613 3.97543ZM407.243 2.27827L407.624 3.20295L407.647 3.19357L407.669 3.18309L407.243 2.27827ZM468.511 2.27827L468.105 3.19208L468.114 3.19608L468.123 3.19991L468.511 2.27827ZM471.226 4.14515L470.493 4.8256L470.519 4.85274L470.546 4.87794L471.226 4.14515ZM473.093 6.77574L474.007 6.3696L473.093 6.77574ZM473.093 55.9085L474.007 56.3147L474.011 56.3057L474.015 56.2966L473.093 55.9085ZM471.226 58.624L471.933 59.3311L471.226 58.624ZM468.596 60.406L468.976 61.3307L468.989 61.3254L469.002 61.3198L468.596 60.406ZM407.413 60.3211L407.007 61.2349L407.016 61.2389L407.025 61.2428L407.413 60.3211ZM404.698 58.5391L403.965 59.2196L403.99 59.2467L404.017 59.2719L404.698 58.5391ZM402.915 55.9085L402.002 56.3147L402.006 56.3245L402.011 56.3343L402.915 55.9085ZM464.25 50.9019V11.6975H462.25V50.9019H464.25ZM463.25 10.6975H412.759V12.6975H463.25V10.6975ZM411.759 11.6975V50.9019H413.759V11.6975H411.759ZM412.759 51.9019H463.25V49.9019H412.759V51.9019ZM403.237 9.91549C403.237 8.84059 403.415 7.8615 403.763 6.96847L401.899 6.24358C401.454 7.38715 401.237 8.61436 401.237 9.91549H403.237ZM403.744 7.01217C404.151 6.09796 404.677 5.32515 405.32 4.68254L403.906 3.26832C403.077 4.09658 402.416 5.07751 401.917 6.19989L403.744 7.01217ZM405.293 4.70822C406.001 4.05092 406.777 3.55165 407.624 3.20295L406.863 1.35359C405.786 1.7969 404.808 2.42907 403.932 3.24264L405.293 4.70822ZM407.669 3.18309C408.489 2.79719 409.389 2.59941 410.383 2.59941V0.599405C409.114 0.599405 407.921 0.854197 406.817 1.37345L407.669 3.18309ZM410.383 2.59941H465.201V0.599405H410.383V2.59941ZM465.201 2.59941C466.259 2.59941 467.222 2.80003 468.105 3.19208L468.917 1.36446C467.762 0.851357 466.52 0.599405 465.201 0.599405V2.59941ZM468.123 3.19991C469.077 3.60186 469.862 4.14555 470.493 4.8256L471.959 3.4647C471.12 2.56073 470.094 1.85984 468.899 1.35664L468.123 3.19991ZM470.546 4.87794C471.236 5.51851 471.78 6.28321 472.179 7.18188L474.007 6.3696C473.501 5.23169 472.801 4.24266 471.907 3.41236L470.546 4.87794ZM472.179 7.18188C472.574 8.07031 472.772 9.00661 472.772 10.0004H474.772C474.772 8.7312 474.517 7.51776 474.007 6.3696L472.179 7.18188ZM472.772 10.0004V52.5142H474.772V10.0004H472.772ZM472.772 52.5142C472.772 53.5715 472.571 54.5708 472.171 55.5205L474.015 56.2966C474.52 55.0965 474.772 53.8329 474.772 52.5142H472.772ZM472.179 55.5024C471.777 56.4079 471.225 57.2112 470.519 57.9169L471.933 59.3311C472.812 58.4527 473.504 57.4457 474.007 56.3147L472.179 55.5024ZM470.519 57.9169C469.876 58.5595 469.104 59.0859 468.189 59.4922L469.002 61.3198C470.124 60.821 471.105 60.1593 471.933 59.3311L470.519 57.9169ZM468.215 59.4813C467.384 59.8234 466.468 60 465.456 60V62C466.706 62 467.884 61.7806 468.976 61.3307L468.215 59.4813ZM465.456 60H410.807V62H465.456V60ZM410.807 60C409.75 60 408.751 59.7994 407.801 59.3995L407.025 61.2428C408.225 61.748 409.489 62 410.807 62V60ZM407.819 59.4073C406.898 58.9981 406.087 58.4644 405.378 57.8063L404.017 59.2719C404.892 60.0847 405.891 60.739 407.007 61.2349L407.819 59.4073ZM405.43 57.8587C404.764 57.1409 404.228 56.3496 403.82 55.4827L402.011 56.3343C402.508 57.3909 403.16 58.3533 403.965 59.2196L405.43 57.8587ZM403.829 55.5024C403.434 54.614 403.237 53.6777 403.237 52.6839H401.237C401.237 53.9531 401.491 55.1665 402.002 56.3147L403.829 55.5024ZM403.237 52.6839V9.91549H401.237V52.6839H403.237ZM482.48 6.69089L483.394 7.09702L482.48 6.69089ZM484.262 4.06029L484.969 4.7674L484.982 4.75431L484.995 4.74074L484.262 4.06029ZM486.808 2.27827L487.188 3.20295L487.201 3.19769L487.214 3.19208L486.808 2.27827ZM540.183 1.59941H541.183V0.599405H540.183V1.59941ZM540.183 11.6975V12.6975H541.183V11.6975H540.183ZM492.323 11.6975V10.6975H491.323V11.6975H492.323ZM492.323 30.3663H491.323V31.3663H492.323V30.3663ZM533.395 30.3663H534.395V29.3663H533.395V30.3663ZM533.395 40.4644V41.4644H534.395V40.4644H533.395ZM492.323 40.4644V39.4644H491.323V40.4644H492.323ZM492.323 61V62H493.323V61H492.323ZM481.801 61H480.801V62H481.801V61ZM482.801 10.0004C482.801 8.94285 483.002 7.97914 483.394 7.09702L481.566 6.28475C481.053 7.43922 480.801 8.68182 480.801 10.0004H482.801ZM483.394 7.09702C483.8 6.18282 484.326 5.41001 484.969 4.7674L483.555 3.35318C482.726 4.18144 482.065 5.16236 481.566 6.28475L483.394 7.09702ZM484.995 4.74074C485.636 4.05036 486.365 3.54177 487.188 3.20295L486.427 1.35359C485.326 1.80678 484.359 2.4862 483.529 3.37984L484.995 4.74074ZM487.214 3.19208C488.102 2.79722 489.038 2.59941 490.032 2.59941V0.599405C488.763 0.599405 487.55 0.854166 486.401 1.36446L487.214 3.19208ZM490.032 2.59941H540.183V0.599405H490.032V2.59941ZM539.183 1.59941V11.6975H541.183V1.59941H539.183ZM540.183 10.6975H492.323V12.6975H540.183V10.6975ZM491.323 11.6975V30.3663H493.323V11.6975H491.323ZM492.323 31.3663H533.395V29.3663H492.323V31.3663ZM532.395 30.3663V40.4644H534.395V30.3663H532.395ZM533.395 39.4644H492.323V41.4644H533.395V39.4644ZM491.323 40.4644V61H493.323V40.4644H491.323ZM492.323 60H481.801V62H492.323V60ZM482.801 61V10.0004H480.801V61H482.801ZM576.709 50.9019V49.9019H575.709V50.9019H576.709ZM598.009 50.9019V51.9019H599.009V50.9019H598.009ZM598.009 11.6975H599.009V10.6975H598.009V11.6975ZM576.709 11.6975H575.709V12.6975H576.709V11.6975ZM576.709 1.59941V0.599405H575.709V1.59941H576.709ZM631.188 1.59941H632.188V0.599405H631.188V1.59941ZM631.188 11.6975V12.6975H632.188V11.6975H631.188ZM608.531 11.6975V10.6975H607.531V11.6975H608.531ZM608.531 50.9019H607.531V51.9019H608.531V50.9019ZM631.188 50.9019H632.188V49.9019H631.188V50.9019ZM631.188 61V62H632.188V61H631.188ZM576.709 61H575.709V62H576.709V61ZM576.709 51.9019H598.009V49.9019H576.709V51.9019ZM599.009 50.9019V11.6975H597.009V50.9019H599.009ZM598.009 10.6975H576.709V12.6975H598.009V10.6975ZM577.709 11.6975V1.59941H575.709V11.6975H577.709ZM576.709 2.59941H631.188V0.599405H576.709V2.59941ZM630.188 1.59941V11.6975H632.188V1.59941H630.188ZM631.188 10.6975H608.531V12.6975H631.188V10.6975ZM607.531 11.6975V50.9019H609.531V11.6975H607.531ZM608.531 51.9019H631.188V49.9019H608.531V51.9019ZM630.188 50.9019V61H632.188V50.9019H630.188ZM631.188 60H576.709V62H631.188V60ZM577.709 61V50.9019H575.709V61H577.709ZM637.437 8.30319L636.454 8.1211L636.451 8.13607L636.449 8.15113L637.437 8.30319ZM638.795 4.39972L639.66 4.90075L639.666 4.89125L639.671 4.88164L638.795 4.39972ZM641.256 1.76912L641.777 2.62241L641.784 2.61856L641.79 2.61461L641.256 1.76912ZM650.336 2.27827L649.766 3.10046L649.777 3.108L649.788 3.11524L650.336 2.27827ZM655.003 6.35145L654.272 7.03464L654.279 7.04172L655.003 6.35145ZM695.48 48.7804L694.756 49.4707L696.48 51.2774V48.7804H695.48ZM695.48 1.59941V0.599405H694.48V1.59941H695.48ZM706.002 1.59941H707.002V0.599405H706.002V1.59941ZM705.578 54.2962L704.595 54.1141L704.592 54.1291L704.59 54.1442L705.578 54.2962ZM704.305 58.1997L705.181 58.6816V58.6816L704.305 58.1997ZM701.759 60.9151L702.281 61.7684L702.287 61.7646L702.293 61.7606L701.759 60.9151ZM692.68 60.406L692.08 61.206L692.091 61.2142L692.102 61.222L692.68 60.406ZM688.097 56.248L687.374 56.939L687.379 56.9434L688.097 56.248ZM647.62 13.9038L648.343 13.2128L646.62 11.4105V13.9038H647.62ZM647.62 61V62H648.62V61H647.62ZM637.098 61H636.098V62H637.098V61ZM638.098 13.1401C638.098 11.4286 638.208 9.86786 638.425 8.45524L636.449 8.15113C636.214 9.68026 636.098 11.3442 636.098 13.1401H638.098ZM638.42 8.48528C638.688 7.04311 639.107 5.85557 639.66 4.90075L637.929 3.89868C637.238 5.09361 636.753 6.50838 636.454 8.1211L638.42 8.48528ZM639.671 4.88164C640.217 3.88986 640.92 3.14652 641.777 2.62241L640.734 0.915842C639.555 1.63631 638.618 2.6467 637.919 3.9178L639.671 4.88164ZM641.79 2.61461C642.675 2.05541 643.782 1.75083 645.159 1.75083V-0.249174C643.481 -0.249174 641.986 0.125109 640.722 0.923635L641.79 2.61461ZM645.159 1.75083C646.958 1.75083 648.48 2.21022 649.766 3.10046L650.905 1.45608C649.249 0.309732 647.32 -0.249174 645.159 -0.249174V1.75083ZM649.788 3.11524C651.173 4.02056 652.668 5.31959 654.272 7.03461L655.733 5.66829C654.056 3.87586 652.44 2.45943 650.883 1.4413L649.788 3.11524ZM654.279 7.04172L694.756 49.4707L696.204 48.0902L655.726 5.66118L654.279 7.04172ZM696.48 48.7804V1.59941H694.48V48.7804H696.48ZM695.48 2.59941H706.002V0.599405H695.48V2.59941ZM705.002 1.59941V49.4593H707.002V1.59941H705.002ZM705.002 49.4593C705.002 51.101 704.866 52.652 704.595 54.1141L706.561 54.4783C706.856 52.8856 707.002 51.212 707.002 49.4593H705.002ZM704.59 54.1442C704.379 55.5167 703.987 56.7032 703.429 57.7178L705.181 58.6816C705.868 57.4333 706.325 56.0175 706.566 54.4483L704.59 54.1442ZM703.429 57.7178C702.887 58.7035 702.155 59.4826 701.225 60.0697L702.293 61.7606C703.514 60.99 704.479 59.9588 705.181 58.6816L703.429 57.7178ZM701.238 60.0619C700.42 60.5617 699.315 60.8486 697.856 60.8486V62.8486C699.565 62.8486 701.062 62.5132 702.281 61.7684L701.238 60.0619ZM697.856 60.8486C695.916 60.8486 694.407 60.4043 693.258 59.59L692.102 61.222C693.667 62.3312 695.61 62.8486 697.856 62.8486V60.8486ZM693.28 59.606C691.978 58.6298 690.491 57.2832 688.816 55.5525L687.379 56.9434C689.098 58.7201 690.666 60.1456 692.08 61.206L693.28 59.606ZM688.82 55.557L648.343 13.2128L646.897 14.5948L687.375 56.9389L688.82 55.557ZM646.62 13.9038V61H648.62V13.9038H646.62ZM647.62 60H637.098V62H647.62V60ZM638.098 61V13.1401H636.098V61H638.098ZM743.071 11.6975H744.071V10.6975H743.071V11.6975ZM712.522 11.6975H711.522V12.6975H712.522V11.6975ZM712.522 1.59941V0.599405H711.522V1.59941H712.522ZM784.057 1.59941H785.057V0.599405H784.057V1.59941ZM784.057 11.6975V12.6975H785.057V11.6975H784.057ZM753.593 11.6975V10.6975H752.593V11.6975H753.593ZM753.593 61V62H754.593V61H753.593ZM743.071 61H742.071V62H743.071V61ZM743.071 10.6975H712.522V12.6975H743.071V10.6975ZM713.522 11.6975V1.59941H711.522V11.6975H713.522ZM712.522 2.59941H784.057V0.599405H712.522V2.59941ZM783.057 1.59941V11.6975H785.057V1.59941H783.057ZM784.057 10.6975H753.593V12.6975H784.057V10.6975ZM752.593 11.6975V61H754.593V11.6975H752.593ZM753.593 60H743.071V62H753.593V60ZM744.071 61V11.6975H742.071V61H744.071ZM792.608 4.06029L793.315 4.7674L793.328 4.75431L793.341 4.74074L792.608 4.06029ZM795.154 2.27827L795.534 3.20295L795.547 3.19769L795.56 3.19208L795.154 2.27827ZM853.96 1.59941H854.96V0.599405H853.96V1.59941ZM853.96 11.6975V12.6975H854.96V11.6975H853.96ZM800.669 11.6975V10.6975H799.669V11.6975H800.669ZM800.669 25.6142H799.669V26.6142H800.669V25.6142ZM847.087 25.6142H848.087V24.6142H847.087V25.6142ZM847.087 35.7123V36.7123H848.087V35.7123H847.087ZM800.669 35.7123V34.7123H799.669V35.7123H800.669ZM800.669 50.9019H799.669V51.9019H800.669V50.9019ZM853.96 50.9019H854.96V49.9019H853.96V50.9019ZM853.96 61V62H854.96V61H853.96ZM795.323 60.3211L794.917 61.2349L794.926 61.2389L794.935 61.2428L795.323 60.3211ZM792.608 58.5391L791.901 59.2462L791.914 59.2593L791.927 59.2719L792.608 58.5391ZM790.826 55.9934L789.912 56.3995L789.917 56.4094L789.921 56.4192L790.826 55.9934ZM791.147 10.0004C791.147 8.94285 791.348 7.97914 791.74 7.09702L789.912 6.28475C789.399 7.43922 789.147 8.68182 789.147 10.0004H791.147ZM791.74 7.09702C792.146 6.18282 792.672 5.41001 793.315 4.7674L791.901 3.35318C791.073 4.18144 790.411 5.16236 789.912 6.28475L791.74 7.09702ZM793.341 4.74074C793.982 4.05036 794.712 3.54177 795.534 3.20295L794.773 1.35359C793.672 1.80678 792.705 2.4862 791.875 3.37984L793.341 4.74074ZM795.56 3.19208C796.448 2.79722 797.385 2.59941 798.378 2.59941V0.599405C797.109 0.599405 795.896 0.854166 794.747 1.36446L795.56 3.19208ZM798.378 2.59941H853.96V0.599405H798.378V2.59941ZM852.96 1.59941V11.6975H854.96V1.59941H852.96ZM853.96 10.6975H800.669V12.6975H853.96V10.6975ZM799.669 11.6975V25.6142H801.669V11.6975H799.669ZM800.669 26.6142H847.087V24.6142H800.669V26.6142ZM846.087 25.6142V35.7123H848.087V25.6142H846.087ZM847.087 34.7123H800.669V36.7123H847.087V34.7123ZM799.669 35.7123V50.9019H801.669V35.7123H799.669ZM800.669 51.9019H853.96V49.9019H800.669V51.9019ZM852.96 50.9019V61H854.96V50.9019H852.96ZM853.96 60H798.718V62H853.96V60ZM798.718 60C797.66 60 796.661 59.7994 795.711 59.3995L794.935 61.2428C796.135 61.748 797.399 62 798.718 62V60ZM795.729 59.4073C794.809 58.9981 793.997 58.4644 793.288 57.8063L791.927 59.2719C792.803 60.0847 793.801 60.739 794.917 61.2349L795.729 59.4073ZM793.315 57.832C792.663 57.18 792.135 56.4272 791.731 55.5676L789.921 56.4192C790.422 57.483 791.082 58.4273 791.901 59.2462L793.315 57.832ZM791.74 55.5872C791.345 54.6988 791.147 53.7625 791.147 52.7688H789.147C789.147 54.0379 789.402 55.2514 789.912 56.3995L791.74 55.5872ZM791.147 52.7688V10.0004H789.147V52.7688H791.147ZM861.166 1.59941V0.599405H860.166V1.59941H861.166ZM871.688 1.59941H872.688V0.599405H871.688V1.59941ZM871.688 50.9019H870.688V51.9019H871.688V50.9019ZM918.19 50.9019H919.19V49.9019H918.19V50.9019ZM918.19 61V62H919.19V61H918.19ZM866.173 60.3211L865.766 61.2349L866.173 60.3211ZM863.542 58.5391L864.249 57.832L863.542 58.5391ZM861.76 55.9934L860.828 56.3558L860.84 56.388L860.855 56.4192L861.76 55.9934ZM861.166 2.59941H871.688V0.599405H861.166V2.59941ZM870.688 1.59941V50.9019H872.688V1.59941H870.688ZM871.688 51.9019H918.19V49.9019H871.688V51.9019ZM917.19 50.9019V61H919.19V50.9019H917.19ZM918.19 60H869.482V62H918.19V60ZM869.482 60C868.424 60 867.461 59.7994 866.579 59.4073L865.766 61.2349C866.921 61.748 868.163 62 869.482 62V60ZM866.579 59.4073C865.664 59.001 864.892 58.4746 864.249 57.832L862.835 59.2462C863.663 60.0745 864.644 60.7361 865.766 61.2349L866.579 59.4073ZM864.249 57.832C863.597 57.18 863.069 56.4272 862.665 55.5676L860.855 56.4192C861.356 57.483 862.016 58.4273 862.835 59.2462L864.249 57.832ZM862.692 55.6309C862.342 54.7323 862.166 53.7807 862.166 52.7688H860.166C860.166 54.0197 860.385 55.2179 860.828 56.3558L862.692 55.6309ZM862.166 52.7688V1.59941H860.166V52.7688H862.166ZM922.82 1.59941V0.599405H921.82V1.59941H922.82ZM933.343 1.59941H934.343V0.599405H933.343V1.59941ZM933.343 50.9019H932.343V51.9019H933.343V50.9019ZM979.845 50.9019H980.845V49.9019H979.845V50.9019ZM979.845 61V62H980.845V61H979.845ZM927.827 60.3211L927.421 61.2349L927.827 60.3211ZM925.197 58.5391L925.904 57.832L925.197 58.5391ZM923.414 55.9934L922.482 56.3558L922.495 56.388L922.51 56.4192L923.414 55.9934ZM922.82 2.59941H933.343V0.599405H922.82V2.59941ZM932.343 1.59941V50.9019H934.343V1.59941H932.343ZM933.343 51.9019H979.845V49.9019H933.343V51.9019ZM978.845 50.9019V61H980.845V50.9019H978.845ZM979.845 60H931.137V62H979.845V60ZM931.137 60C930.079 60 929.115 59.7994 928.233 59.4073L927.421 61.2349C928.575 61.748 929.818 62 931.137 62V60ZM928.233 59.4073C927.319 59.001 926.546 58.4746 925.904 57.832L924.489 59.2462C925.318 60.0745 926.299 60.7361 927.421 61.2349L928.233 59.4073ZM925.904 57.832C925.252 57.18 924.724 56.4272 924.319 55.5676L922.51 56.4192C923.01 57.483 923.671 58.4273 924.489 59.2462L925.904 57.832ZM924.346 55.6309C923.997 54.7323 923.82 53.7807 923.82 52.7688H921.82C921.82 54.0197 922.04 55.2179 922.482 56.3558L924.346 55.6309ZM923.82 52.7688V1.59941H921.82V52.7688H923.82ZM986.936 4.06029L987.643 4.7674L987.656 4.75431L987.669 4.74074L986.936 4.06029ZM989.482 2.27827L989.863 3.20295L989.875 3.19769L989.888 3.19208L989.482 2.27827ZM1048.29 1.59941H1049.29V0.599405H1048.29V1.59941ZM1048.29 11.6975V12.6975H1049.29V11.6975H1048.29ZM994.998 11.6975V10.6975H993.998V11.6975H994.998ZM994.998 25.6142H993.998V26.6142H994.998V25.6142ZM1041.41 25.6142H1042.41V24.6142H1041.41V25.6142ZM1041.41 35.7123V36.7123H1042.41V35.7123H1041.41ZM994.998 35.7123V34.7123H993.998V35.7123H994.998ZM994.998 50.9019H993.998V51.9019H994.998V50.9019ZM1048.29 50.9019H1049.29V49.9019H1048.29V50.9019ZM1048.29 61V62H1049.29V61H1048.29ZM989.651 60.3211L989.245 61.2349L989.254 61.2389L989.263 61.2428L989.651 60.3211ZM986.936 58.5391L986.229 59.2462L986.242 59.2593L986.256 59.2719L986.936 58.5391ZM985.154 55.9934L984.24 56.3995L984.245 56.4094L984.249 56.4192L985.154 55.9934ZM985.475 10.0004C985.475 8.94285 985.676 7.97914 986.068 7.09702L984.24 6.28475C983.727 7.43922 983.475 8.68182 983.475 10.0004H985.475ZM986.068 7.09702C986.474 6.18282 987.001 5.41001 987.643 4.7674L986.229 3.35318C985.401 4.18144 984.739 5.16236 984.24 6.28475L986.068 7.09702ZM987.669 4.74074C988.31 4.05036 989.04 3.54177 989.863 3.20295L989.101 1.35359C988 1.80678 987.033 2.4862 986.203 3.37984L987.669 4.74074ZM989.888 3.19208C990.776 2.79722 991.713 2.59941 992.706 2.59941V0.599405C991.437 0.599405 990.224 0.854166 989.076 1.36446L989.888 3.19208ZM992.706 2.59941H1048.29V0.599405H992.706V2.59941ZM1047.29 1.59941V11.6975H1049.29V1.59941H1047.29ZM1048.29 10.6975H994.998V12.6975H1048.29V10.6975ZM993.998 11.6975V25.6142H995.998V11.6975H993.998ZM994.998 26.6142H1041.41V24.6142H994.998V26.6142ZM1040.41 25.6142V35.7123H1042.41V25.6142H1040.41ZM1041.41 34.7123H994.998V36.7123H1041.41V34.7123ZM993.998 35.7123V50.9019H995.998V35.7123H993.998ZM994.998 51.9019H1048.29V49.9019H994.998V51.9019ZM1047.29 50.9019V61H1049.29V50.9019H1047.29ZM1048.29 60H993.046V62H1048.29V60ZM993.046 60C991.989 60 990.989 59.7994 990.04 59.3995L989.263 61.2428C990.464 61.748 991.727 62 993.046 62V60ZM990.058 59.4073C989.137 58.9981 988.325 58.4644 987.617 57.8063L986.256 59.2719C987.131 60.0847 988.129 60.739 989.245 61.2349L990.058 59.4073ZM987.643 57.832C986.991 57.18 986.463 56.4272 986.059 55.5676L984.249 56.4192C984.75 57.483 985.41 58.4273 986.229 59.2462L987.643 57.832ZM986.068 55.5872C985.673 54.6988 985.475 53.7625 985.475 52.7688H983.475C983.475 54.0379 983.73 55.2514 984.24 56.3995L986.068 55.5872ZM985.475 52.7688V10.0004H983.475V52.7688H985.475ZM1057.95 4.06029L1058.66 4.7674L1058.68 4.75431L1058.69 4.74074L1057.95 4.06029ZM1060.5 2.27827L1060.88 3.20295L1060.89 3.19769L1060.91 3.19208L1060.5 2.27827ZM1121.6 1.59941H1122.6V0.599405H1121.6V1.59941ZM1121.6 11.6975V12.6975H1122.6V11.6975H1121.6ZM1066.02 11.6975V10.6975H1065.02V11.6975H1066.02ZM1066.02 50.9019H1065.02V51.9019H1066.02V50.9019ZM1121.6 50.9019H1122.6V49.9019H1121.6V50.9019ZM1121.6 61V62H1122.6V61H1121.6ZM1060.67 60.3211L1060.26 61.2349L1060.27 61.2389L1060.28 61.2428L1060.67 60.3211ZM1057.95 58.5391L1057.25 59.2462L1057.26 59.2593L1057.27 59.2719L1057.95 58.5391ZM1056.17 55.9934L1055.26 56.3995L1055.26 56.4094L1055.27 56.4192L1056.17 55.9934ZM1056.49 10.0004C1056.49 8.94285 1056.69 7.97914 1057.09 7.09702L1055.26 6.28475C1054.75 7.43922 1054.49 8.68182 1054.49 10.0004H1056.49ZM1057.09 7.09702C1057.49 6.18282 1058.02 5.41001 1058.66 4.7674L1057.25 3.35318C1056.42 4.18144 1055.76 5.16236 1055.26 6.28475L1057.09 7.09702ZM1058.69 4.74074C1059.33 4.05036 1060.06 3.54177 1060.88 3.20295L1060.12 1.35359C1059.02 1.80678 1058.05 2.4862 1057.22 3.37984L1058.69 4.74074ZM1060.91 3.19208C1061.8 2.79722 1062.73 2.59941 1063.73 2.59941V0.599405C1062.46 0.599405 1061.24 0.854166 1060.09 1.36446L1060.91 3.19208ZM1063.73 2.59941H1121.6V0.599405H1063.73V2.59941ZM1120.6 1.59941V11.6975H1122.6V1.59941H1120.6ZM1121.6 10.6975H1066.02V12.6975H1121.6V10.6975ZM1065.02 11.6975V50.9019H1067.02V11.6975H1065.02ZM1066.02 51.9019H1121.6V49.9019H1066.02V51.9019ZM1120.6 50.9019V61H1122.6V50.9019H1120.6ZM1121.6 60H1064.06V62H1121.6V60ZM1064.06 60C1063.01 60 1062.01 59.7994 1061.06 59.3995L1060.28 61.2428C1061.48 61.748 1062.75 62 1064.06 62V60ZM1061.08 59.4073C1060.16 58.9981 1059.34 58.4644 1058.64 57.8063L1057.27 59.2719C1058.15 60.0847 1059.15 60.739 1060.26 61.2349L1061.08 59.4073ZM1058.66 57.832C1058.01 57.18 1057.48 56.4272 1057.08 55.5676L1055.27 56.4192C1055.77 57.483 1056.43 58.4273 1057.25 59.2462L1058.66 57.832ZM1057.09 55.5872C1056.69 54.6988 1056.49 53.7625 1056.49 52.7688H1054.49C1054.49 54.0379 1054.75 55.2514 1055.26 56.3995L1057.09 55.5872ZM1056.49 52.7688V10.0004H1054.49V52.7688H1056.49ZM1157.83 11.6975H1158.83V10.6975H1157.83V11.6975ZM1127.28 11.6975H1126.28V12.6975H1127.28V11.6975ZM1127.28 1.59941V0.599405H1126.28V1.59941H1127.28ZM1198.82 1.59941H1199.82V0.599405H1198.82V1.59941ZM1198.82 11.6975V12.6975H1199.82V11.6975H1198.82ZM1168.35 11.6975V10.6975H1167.35V11.6975H1168.35ZM1168.35 61V62H1169.35V61H1168.35ZM1157.83 61H1156.83V62H1157.83V61ZM1157.83 10.6975H1127.28V12.6975H1157.83V10.6975ZM1128.28 11.6975V1.59941H1126.28V11.6975H1128.28ZM1127.28 2.59941H1198.82V0.599405H1127.28V2.59941ZM1197.82 1.59941V11.6975H1199.82V1.59941H1197.82ZM1198.82 10.6975H1168.35V12.6975H1198.82V10.6975ZM1167.35 11.6975V61H1169.35V11.6975H1167.35ZM1168.35 60H1157.83V62H1168.35V60ZM1158.83 61V11.6975H1156.83V61H1158.83ZM1205.58 50.9019V49.9019H1204.58V50.9019H1205.58ZM1266.51 50.9019V51.9019H1267.51V50.9019H1266.51ZM1266.51 35.7123H1267.51V34.7123H1266.51V35.7123ZM1210.67 35.1183L1210.27 36.0321L1210.3 36.0454L1210.33 36.0567L1210.67 35.1183ZM1207.96 33.3363L1207.22 34.0167L1207.25 34.0439L1207.28 34.0691L1207.96 33.3363ZM1206.17 30.7057L1205.24 31.0681L1205.25 31.1003L1205.27 31.1315L1206.17 30.7057ZM1206.26 6.52117L1207.17 6.92731L1206.26 6.52117ZM1208.04 3.89057L1207.36 3.15778L1207.35 3.17038L1207.33 3.18347L1208.04 3.89057ZM1210.67 2.19341L1210.31 1.26141L1210.3 1.26498L1210.29 1.26874L1210.67 2.19341ZM1270.41 1.59941H1271.41V0.599405H1270.41V1.59941ZM1270.41 11.6975V12.6975H1271.41V11.6975H1270.41ZM1216.1 11.6975V10.6975H1215.1V11.6975H1216.1ZM1216.1 25.6142H1215.1V26.6142H1216.1V25.6142ZM1271.85 26.2931L1271.45 27.2069L1271.85 26.2931ZM1274.48 28.0751L1273.78 28.7822L1273.79 28.7953L1273.8 28.8079L1274.48 28.0751ZM1276.35 30.7057L1277.27 30.2996V30.2996L1276.35 30.7057ZM1274.57 58.7088L1275.25 59.4407L1275.26 59.4345L1275.26 59.4282L1274.57 58.7088ZM1205.58 61H1204.58V62H1205.58V61ZM1205.58 51.9019H1266.51V49.9019H1205.58V51.9019ZM1267.51 50.9019V35.7123H1265.51V50.9019H1267.51ZM1266.51 34.7123H1214.07V36.7123H1266.51V34.7123ZM1214.07 34.7123C1212.99 34.7123 1211.98 34.5337 1211.02 34.18L1210.33 36.0567C1211.52 36.4949 1212.76 36.7123 1214.07 36.7123V34.7123ZM1211.08 34.2045C1210.16 33.7953 1209.35 33.2616 1208.64 32.6035L1207.28 34.0691C1208.15 34.8819 1209.15 35.5362 1210.27 36.0321L1211.08 34.2045ZM1208.69 32.6558C1208.02 31.9381 1207.49 31.1468 1207.08 30.2799L1205.27 31.1315C1205.77 32.188 1206.42 33.1505 1207.22 34.0167L1208.69 32.6558ZM1207.11 30.3433C1206.76 29.4446 1206.58 28.493 1206.58 27.4811H1204.58C1204.58 28.732 1204.8 29.9302 1205.24 31.0681L1207.11 30.3433ZM1206.58 27.4811V9.91549H1204.58V27.4811H1206.58ZM1206.58 9.91549C1206.58 8.79441 1206.78 7.80356 1207.17 6.92731L1205.34 6.11503C1204.83 7.27538 1204.58 8.5474 1204.58 9.91549H1206.58ZM1207.17 6.92731C1207.58 6.0131 1208.11 5.2403 1208.75 4.59768L1207.33 3.18347C1206.51 4.01172 1205.84 4.99265 1205.34 6.11503L1207.17 6.92731ZM1208.72 4.62337C1209.43 3.96606 1210.21 3.46679 1211.05 3.11809L1210.29 1.26874C1209.21 1.71204 1208.24 2.34421 1207.36 3.15778L1208.72 4.62337ZM1211.03 3.12542C1211.94 2.77359 1212.86 2.59941 1213.81 2.59941V0.599405C1212.61 0.599405 1211.44 0.821222 1210.31 1.26141L1211.03 3.12542ZM1213.81 2.59941H1270.41V0.599405H1213.81V2.59941ZM1269.41 1.59941V11.6975H1271.41V1.59941H1269.41ZM1270.41 10.6975H1216.1V12.6975H1270.41V10.6975ZM1215.1 11.6975V25.6142H1217.1V11.6975H1215.1ZM1216.1 26.6142H1268.54V24.6142H1216.1V26.6142ZM1268.54 26.6142C1269.6 26.6142 1270.57 26.8148 1271.45 27.2069L1272.26 25.3793C1271.11 24.8662 1269.86 24.6142 1268.54 24.6142V26.6142ZM1271.45 27.2069C1272.36 27.6132 1273.13 28.1396 1273.78 28.7822L1275.19 27.368C1274.36 26.5397 1273.38 25.8781 1272.26 25.3793L1271.45 27.2069ZM1273.8 28.8079C1274.49 29.4485 1275.04 30.2132 1275.44 31.1118L1277.27 30.2996C1276.76 29.1616 1276.06 28.1726 1275.17 27.3423L1273.8 28.8079ZM1275.44 31.1118C1275.84 32.0071 1276.03 32.9157 1276.03 33.8454H1278.03C1278.03 32.6255 1277.77 31.4409 1277.27 30.2996L1275.44 31.1118ZM1276.03 33.8454V52.6839H1278.03V33.8454H1276.03ZM1276.03 52.6839C1276.03 54.8654 1275.31 56.6074 1273.87 57.9894L1275.26 59.4282C1277.11 57.6422 1278.03 55.3676 1278.03 52.6839H1276.03ZM1273.89 57.9769C1272.43 59.3303 1270.73 60 1268.71 60V62C1271.23 62 1273.42 61.1423 1275.25 59.4407L1273.89 57.9769ZM1268.71 60H1205.58V62H1268.71V60ZM1206.58 61V50.9019H1204.58V61H1206.58Z" fill="white" mask="url(#path-1-outside-1_158_372)"/>
</g>
</svg>
