<svg width="1278" height="62" viewBox="0 0 1278 62" fill="none" xmlns="http://www.w3.org/2000/svg">
<g opacity="0.8" filter="url(#filter0_i_206_358)">
<path d="M0.818848 10.0005C0.818848 8.81249 1.04514 7.70933 1.49771 6.69103C1.95029 5.67274 2.54429 4.79587 3.27973 4.06044C4.01517 3.26843 4.86375 2.67442 5.82547 2.27842C6.84377 1.82584 7.91863 1.59956 9.05007 1.59956H66.9232V11.6977H11.3412V50.9021H66.9232V61.0001H9.38951C8.20149 61.0001 7.07005 60.7739 5.99519 60.3213C4.97689 59.8687 4.07174 59.2747 3.27973 58.5393C2.54429 57.8038 1.95029 56.9553 1.49771 55.9935C1.04514 54.9752 0.818848 53.9004 0.818848 52.7689V10.0005Z" fill="url(#paint0_linear_206_358)"/>
<path d="M74.158 1.59956H84.6804V50.9021H131.183V61.0001H82.4741C81.2861 61.0001 80.1829 60.7739 79.1646 60.3213C78.1464 59.8687 77.2695 59.2747 76.534 58.5393C75.7986 57.8038 75.2046 56.9553 74.752 55.9935C74.356 54.9752 74.158 53.9004 74.158 52.7689V1.59956Z" fill="url(#paint1_linear_206_358)"/>
<path d="M150.294 9.74592C151.086 7.14361 152.302 5.13531 153.942 3.72101C155.583 2.30671 157.761 1.59956 160.477 1.59956H179.654C182.483 1.59956 184.746 2.33499 186.443 3.80587C188.14 5.22016 189.385 7.20018 190.177 9.74592L206.3 61.0001H195.183L189.922 44.0286H157.506L160.137 33.9305H186.952L180.248 11.6977H160.222L145.287 61.0001H134.086L150.294 9.74592Z" fill="url(#paint2_linear_206_358)"/>
<path d="M211.399 50.9021H272.327V35.7125H219.885C218.697 35.7125 217.566 35.5145 216.491 35.1185C215.472 34.6659 214.567 34.0719 213.775 33.3364C213.04 32.5444 212.446 31.6676 211.993 30.7058C211.597 29.6876 211.399 28.6127 211.399 27.4812V9.91564C211.399 8.67106 211.626 7.53962 212.078 6.52132C212.531 5.50303 213.125 4.62616 213.86 3.89072C214.652 3.15529 215.529 2.58957 216.491 2.19356C217.509 1.79756 218.556 1.59956 219.63 1.59956H276.231V11.6977H221.922V25.6144H274.364C275.552 25.6144 276.655 25.8407 277.673 26.2932C278.692 26.7458 279.568 27.3398 280.304 28.0753C281.096 28.8107 281.718 29.6876 282.171 30.7058C282.623 31.7241 282.85 32.7707 282.85 33.8456V52.6841C282.85 55.1167 282.029 57.125 280.389 58.709C278.748 60.2364 276.796 61.0001 274.534 61.0001H211.399V50.9021Z" fill="url(#paint3_linear_206_358)"/>
<path d="M290.456 1.59956H300.979V25.6144H349.687V1.59956H360.21V61.0001H349.687V35.7125H300.979V61.0001H290.456V1.59956Z" fill="url(#paint4_linear_206_358)"/>
<path d="M463.25 50.9021V11.6977H412.759V50.9021H463.25ZM402.237 9.91564C402.237 8.72763 402.435 7.62447 402.831 6.60618C403.283 5.58788 403.877 4.71102 404.613 3.97558C405.405 3.24014 406.282 2.67442 407.243 2.27842C408.205 1.82584 409.252 1.59956 410.383 1.59956H465.202C466.39 1.59956 467.493 1.82584 468.511 2.27842C469.586 2.731 470.491 3.35329 471.226 4.1453C472.018 4.88073 472.641 5.7576 473.093 6.77589C473.546 7.79419 473.772 8.86906 473.772 10.0005V52.5144C473.772 53.7024 473.546 54.8338 473.093 55.9087C472.641 56.927 472.018 57.8321 471.226 58.6241C470.491 59.3596 469.614 59.9536 468.596 60.4061C467.634 60.8021 466.588 61.0001 465.456 61.0001H410.808C409.62 61.0001 408.488 60.7739 407.413 60.3213C406.395 59.8687 405.49 59.2747 404.698 58.5393C403.962 57.7473 403.368 56.8704 402.916 55.9087C402.463 54.8904 402.237 53.8155 402.237 52.6841V9.91564Z" fill="url(#paint5_linear_206_358)"/>
<path d="M481.801 10.0005C481.801 8.81249 482.027 7.70933 482.48 6.69103C482.933 5.67274 483.527 4.79587 484.262 4.06044C484.997 3.26843 485.846 2.67442 486.808 2.27842C487.826 1.82584 488.901 1.59956 490.032 1.59956H540.183V11.6977H492.324V30.3664H533.395V40.4645H492.324V61.0001H481.801V10.0005Z" fill="url(#paint6_linear_206_358)"/>
<path d="M576.71 50.9021H598.009V11.6977H576.71V1.59956H631.188V11.6977H608.531V50.9021H631.188V61.0001H576.71V50.9021Z" fill="url(#paint7_linear_206_358)"/>
<path d="M637.098 13.1402C637.098 11.3865 637.211 9.77421 637.437 8.30334C637.72 6.7759 638.173 5.47474 638.795 4.39987C639.417 3.26843 640.238 2.39157 641.256 1.76927C642.331 1.09041 643.632 0.750977 645.159 0.750977C647.139 0.750977 648.865 1.26012 650.336 2.27842C651.807 3.24015 653.362 4.59787 655.003 6.3516L695.48 48.7806V1.59956H706.003V49.4595C706.003 51.1566 705.861 52.7689 705.578 54.2964C705.352 55.7672 704.928 57.0684 704.305 58.1998C703.683 59.3313 702.835 60.2364 701.76 60.9153C700.741 61.5376 699.44 61.8487 697.856 61.8487C695.763 61.8487 694.038 61.3679 692.68 60.4061C691.322 59.3878 689.795 58.0018 688.098 56.2481L647.62 13.904V61.0001H637.098V13.1402Z" fill="url(#paint8_linear_206_358)"/>
<path d="M743.071 11.6977H712.522V1.59956H784.057V11.6977H753.593V61.0001H743.071V11.6977Z" fill="url(#paint9_linear_206_358)"/>
<path d="M790.147 10.0005C790.147 8.81249 790.374 7.70933 790.826 6.69103C791.279 5.67274 791.873 4.79587 792.608 4.06044C793.344 3.26843 794.192 2.67442 795.154 2.27842C796.172 1.82584 797.247 1.59956 798.378 1.59956H853.961V11.6977H800.67V25.6144H847.087V35.7125H800.67V50.9021H853.961V61.0001H798.718C797.53 61.0001 796.398 60.7739 795.324 60.3213C794.305 59.8687 793.4 59.2747 792.608 58.5393C791.873 57.8038 791.279 56.9553 790.826 55.9935C790.374 54.9752 790.147 53.9004 790.147 52.7689V10.0005Z" fill="url(#paint10_linear_206_358)"/>
<path d="M861.166 1.59956H871.689V50.9021H918.191V61.0001H869.482C868.294 61.0001 867.191 60.7739 866.173 60.3213C865.154 59.8687 864.278 59.2747 863.542 58.5393C862.807 57.8038 862.213 56.9553 861.76 55.9935C861.364 54.9752 861.166 53.9004 861.166 52.7689V1.59956Z" fill="url(#paint11_linear_206_358)"/>
<path d="M922.821 1.59956H933.343V50.9021H979.845V61.0001H931.137C929.949 61.0001 928.846 60.7739 927.827 60.3213C926.809 59.8687 925.932 59.2747 925.197 58.5393C924.461 57.8038 923.867 56.9553 923.415 55.9935C923.019 54.9752 922.821 53.9004 922.821 52.7689V1.59956Z" fill="url(#paint12_linear_206_358)"/>
<path d="M984.475 10.0005C984.475 8.81249 984.702 7.70933 985.154 6.69103C985.607 5.67274 986.201 4.79587 986.936 4.06044C987.672 3.26843 988.52 2.67442 989.482 2.27842C990.5 1.82584 991.575 1.59956 992.707 1.59956H1048.29V11.6977H994.998V25.6144H1041.42V35.7125H994.998V50.9021H1048.29V61.0001H993.046C991.858 61.0001 990.727 60.7739 989.652 60.3213C988.633 59.8687 987.728 59.2747 986.936 58.5393C986.201 57.8038 985.607 56.9553 985.154 55.9935C984.702 54.9752 984.475 53.9004 984.475 52.7689V10.0005Z" fill="url(#paint13_linear_206_358)"/>
<path d="M1055.49 10.0005C1055.49 8.81249 1055.72 7.70933 1056.17 6.69103C1056.63 5.67274 1057.22 4.79587 1057.96 4.06044C1058.69 3.26843 1059.54 2.67442 1060.5 2.27842C1061.52 1.82584 1062.59 1.59956 1063.73 1.59956H1121.6V11.6977H1066.02V50.9021H1121.6V61.0001H1064.06C1062.88 61.0001 1061.75 60.7739 1060.67 60.3213C1059.65 59.8687 1058.75 59.2747 1057.96 58.5393C1057.22 57.8038 1056.63 56.9553 1056.17 55.9935C1055.72 54.9752 1055.49 53.9004 1055.49 52.7689V10.0005Z" fill="url(#paint14_linear_206_358)"/>
<path d="M1157.83 11.6977H1127.28V1.59956H1198.82V11.6977H1168.35V61.0001H1157.83V11.6977Z" fill="url(#paint15_linear_206_358)"/>
<path d="M1205.58 50.9021H1266.51V35.7125H1214.07C1212.88 35.7125 1211.75 35.5145 1210.67 35.1185C1209.65 34.6659 1208.75 34.0719 1207.96 33.3364C1207.22 32.5444 1206.63 31.6676 1206.17 30.7058C1205.78 29.6876 1205.58 28.6127 1205.58 27.4812V9.91564C1205.58 8.67106 1205.81 7.53962 1206.26 6.52132C1206.71 5.50303 1207.31 4.62616 1208.04 3.89072C1208.83 3.15529 1209.71 2.58957 1210.67 2.19356C1211.69 1.79756 1212.74 1.59956 1213.81 1.59956H1270.41V11.6977H1216.1V25.6144H1268.54C1269.73 25.6144 1270.84 25.8407 1271.85 26.2932C1272.87 26.7458 1273.75 27.3398 1274.48 28.0753C1275.28 28.8107 1275.9 29.6876 1276.35 30.7058C1276.8 31.7241 1277.03 32.7707 1277.03 33.8456V52.6841C1277.03 55.1167 1276.21 57.125 1274.57 58.709C1272.93 60.2364 1270.98 61.0001 1268.71 61.0001H1205.58V50.9021Z" fill="url(#paint16_linear_206_358)"/>
</g>
<defs>
<filter id="filter0_i_206_358" x="-2.18115" y="0.750977" width="1279.21" height="65.0977" filterUnits="userSpaceOnUse" color-interpolation-filters="sRGB">
<feFlood flood-opacity="0" result="BackgroundImageFix"/>
<feBlend mode="normal" in="SourceGraphic" in2="BackgroundImageFix" result="shape"/>
<feColorMatrix in="SourceAlpha" type="matrix" values="0 0 0 0 0 0 0 0 0 0 0 0 0 0 0 0 0 0 127 0" result="hardAlpha"/>
<feOffset dx="-3" dy="7"/>
<feGaussianBlur stdDeviation="2"/>
<feComposite in2="hardAlpha" operator="arithmetic" k2="-1" k3="1"/>
<feColorMatrix type="matrix" values="0 0 0 0 0 0 0 0 0 0 0 0 0 0 0 0 0 0 0.25 0"/>
<feBlend mode="normal" in2="shape" result="effect1_innerShadow_206_358"/>
</filter>
<linearGradient id="paint0_linear_206_358" x1="-3" y1="31" x2="1281" y2="31" gradientUnits="userSpaceOnUse">
<stop stop-color="#FF5100"/>
<stop offset="1" stop-color="#6F00FF"/>
</linearGradient>
<linearGradient id="paint1_linear_206_358" x1="-3" y1="31" x2="1281" y2="31" gradientUnits="userSpaceOnUse">
<stop stop-color="#FF5100"/>
<stop offset="1" stop-color="#6F00FF"/>
</linearGradient>
<linearGradient id="paint2_linear_206_358" x1="-3" y1="31" x2="1281" y2="31" gradientUnits="userSpaceOnUse">
<stop stop-color="#FF5100"/>
<stop offset="1" stop-color="#6F00FF"/>
</linearGradient>
<linearGradient id="paint3_linear_206_358" x1="-3" y1="31" x2="1281" y2="31" gradientUnits="userSpaceOnUse">
<stop stop-color="#FF5100"/>
<stop offset="1" stop-color="#6F00FF"/>
</linearGradient>
<linearGradient id="paint4_linear_206_358" x1="-3" y1="31" x2="1281" y2="31" gradientUnits="userSpaceOnUse">
<stop stop-color="#FF5100"/>
<stop offset="1" stop-color="#6F00FF"/>
</linearGradient>
<linearGradient id="paint5_linear_206_358" x1="-3" y1="31" x2="1281" y2="31" gradientUnits="userSpaceOnUse">
<stop stop-color="#FF5100"/>
<stop offset="1" stop-color="#6F00FF"/>
</linearGradient>
<linearGradient id="paint6_linear_206_358" x1="-3" y1="31" x2="1281" y2="31" gradientUnits="userSpaceOnUse">
<stop stop-color="#FF5100"/>
<stop offset="1" stop-color="#6F00FF"/>
</linearGradient>
<linearGradient id="paint7_linear_206_358" x1="-3" y1="31" x2="1281" y2="31" gradientUnits="userSpaceOnUse">
<stop stop-color="#FF5100"/>
<stop offset="1" stop-color="#6F00FF"/>
</linearGradient>
<linearGradient id="paint8_linear_206_358" x1="-3" y1="31" x2="1281" y2="31" gradientUnits="userSpaceOnUse">
<stop stop-color="#FF5100"/>
<stop offset="1" stop-color="#6F00FF"/>
</linearGradient>
<linearGradient id="paint9_linear_206_358" x1="-3" y1="31" x2="1281" y2="31" gradientUnits="userSpaceOnUse">
<stop stop-color="#FF5100"/>
<stop offset="1" stop-color="#6F00FF"/>
</linearGradient>
<linearGradient id="paint10_linear_206_358" x1="-3" y1="31" x2="1281" y2="31" gradientUnits="userSpaceOnUse">
<stop stop-color="#FF5100"/>
<stop offset="1" stop-color="#6F00FF"/>
</linearGradient>
<linearGradient id="paint11_linear_206_358" x1="-3" y1="31" x2="1281" y2="31" gradientUnits="userSpaceOnUse">
<stop stop-color="#FF5100"/>
<stop offset="1" stop-color="#6F00FF"/>
</linearGradient>
<linearGradient id="paint12_linear_206_358" x1="-3" y1="31" x2="1281" y2="31" gradientUnits="userSpaceOnUse">
<stop stop-color="#FF5100"/>
<stop offset="1" stop-color="#6F00FF"/>
</linearGradient>
<linearGradient id="paint13_linear_206_358" x1="-3" y1="31" x2="1281" y2="31" gradientUnits="userSpaceOnUse">
<stop stop-color="#FF5100"/>
<stop offset="1" stop-color="#6F00FF"/>
</linearGradient>
<linearGradient id="paint14_linear_206_358" x1="-3" y1="31" x2="1281" y2="31" gradientUnits="userSpaceOnUse">
<stop stop-color="#FF5100"/>
<stop offset="1" stop-color="#6F00FF"/>
</linearGradient>
<linearGradient id="paint15_linear_206_358" x1="-3" y1="31" x2="1281" y2="31" gradientUnits="userSpaceOnUse">
<stop stop-color="#FF5100"/>
<stop offset="1" stop-color="#6F00FF"/>
</linearGradient>
<linearGradient id="paint16_linear_206_358" x1="-3" y1="31" x2="1281" y2="31" gradientUnits="userSpaceOnUse">
<stop stop-color="#FF5100"/>
<stop offset="1" stop-color="#6F00FF"/>
</linearGradient>
</defs>
</svg>
