<svg width="1440" height="138" viewBox="0 0 1440 138" fill="none" xmlns="http://www.w3.org/2000/svg">
<rect x="-59" width="1558.75" height="137.207" fill="white"/>
<g opacity="0.8" filter="url(#filter0_i_176_681)">
<path d="M244.986 54.0139C244.986 53.1523 245.15 52.3523 245.478 51.6138C245.806 50.8753 246.237 50.2394 246.77 49.706C247.304 49.1317 247.919 48.7009 248.617 48.4137C249.355 48.0855 250.135 47.9213 250.955 47.9213H292.618V55.2447H252.617V83.6766H289.172V73.0916H265.664V65.8298H290.711C291.572 65.8298 292.372 65.9939 293.111 66.3221C293.849 66.6093 294.485 67.0401 295.019 67.6144C295.593 68.1478 296.024 68.7837 296.311 69.5222C296.639 70.2197 296.803 70.9787 296.803 71.7992V84.9074C296.803 86.6716 296.208 88.1281 295.019 89.2769C293.829 90.4256 292.413 91 290.772 91H251.201C249.437 91 247.96 90.4256 246.77 89.2769C245.581 88.0871 244.986 86.6716 244.986 85.0305V54.0139ZM302.327 65.2759C302.327 64.004 302.778 62.9578 303.681 62.1373C304.584 61.2757 305.65 60.8449 306.881 60.8449H334.821C336.051 60.8449 337.098 61.2757 337.959 62.1373C338.862 62.9989 339.313 64.0656 339.313 65.3374V75.0609C339.313 76.3327 338.862 77.3995 337.959 78.261C337.098 79.1226 336.051 79.5534 334.821 79.5534H309.773V84.8459H338.944V91H306.82C305.589 91 304.522 90.5692 303.619 89.7076C302.758 88.8461 302.327 87.7794 302.327 86.5075V65.2759ZM331.867 73.5224V66.876H309.773V73.5224H331.867ZM343.36 76.661C343.36 75.3891 343.791 74.3429 344.652 73.5224C345.555 72.6608 346.622 72.23 347.852 72.23H372.161V66.876H347.852V60.8449H375.177C376.407 60.8449 377.454 61.2757 378.315 62.1373C379.177 62.9989 379.608 64.0656 379.608 65.3374V86.5691C379.608 87.7999 379.156 88.8461 378.254 89.7076C377.392 90.5692 376.346 91 375.115 91H347.852C346.622 91 345.555 90.5897 344.652 89.7692C343.791 88.9076 343.36 87.8409 343.36 86.5691V76.661ZM372.161 84.969V78.261H350.806V84.969H372.161ZM386.052 65.3374C386.052 64.0656 386.482 62.9989 387.344 62.1373C388.205 61.2757 389.252 60.8449 390.482 60.8449H412.022V67.9837H393.498V91H386.052V65.3374ZM441.575 47.9213H449.206V83.6766H481.454V47.9213H489.085V84.9074C489.085 85.769 488.921 86.5691 488.593 87.3075C488.264 88.046 487.813 88.7025 487.239 89.2769C486.705 89.8102 486.069 90.241 485.331 90.5692C484.634 90.8564 483.875 91 483.054 91H447.791C446.929 91 446.109 90.8359 445.329 90.5077C444.591 90.1795 443.934 89.7487 443.36 89.2153C442.827 88.682 442.396 88.0665 442.068 87.3691C441.74 86.6306 441.575 85.8511 441.575 85.0305V47.9213ZM495.243 65.3374C495.243 64.1066 495.654 63.0604 496.474 62.1988C497.336 61.2962 498.402 60.8449 499.674 60.8449H527.306C528.537 60.8449 529.583 61.2962 530.445 62.1988C531.347 63.0604 531.799 64.1066 531.799 65.3374V78.261C531.799 79.5329 531.347 80.5996 530.445 81.4612C529.583 82.3227 528.537 82.7535 527.306 82.7535H502.69V91H495.243V65.3374ZM524.352 75.9225V67.676H502.69V75.9225H524.352ZM566.452 67.676H559.806V60.8449H566.452V52.4138C566.452 51.142 566.883 50.0753 567.745 49.2137C568.647 48.3521 569.714 47.9213 570.945 47.9213H589.592V54.5678H573.899V60.8449H585.838V67.676H573.899V91H566.452V67.676ZM590.199 65.3374C590.199 64.0656 590.63 62.9989 591.491 62.1373C592.394 61.2757 593.461 60.8449 594.692 60.8449H621.954C623.185 60.8449 624.231 61.2757 625.093 62.1373C625.995 62.9989 626.447 64.0656 626.447 65.3374V86.5075C626.447 87.7794 625.995 88.8461 625.093 89.7076C624.231 90.5692 623.185 91 621.954 91H594.692C593.461 91 592.394 90.5692 591.491 89.7076C590.63 88.8461 590.199 87.7794 590.199 86.5075V65.3374ZM619 83.8613V67.9837H597.646V83.8613H619ZM632.936 65.3374C632.936 64.0656 633.367 62.9989 634.229 62.1373C635.09 61.2757 636.137 60.8449 637.367 60.8449H658.907V67.9837H640.383V91H632.936V65.3374ZM688.153 54.0139C688.153 53.1523 688.317 52.3523 688.645 51.6138C688.973 50.8753 689.404 50.2394 689.937 49.706C690.471 49.1317 691.086 48.7009 691.783 48.4137C692.522 48.0855 693.302 47.9213 694.122 47.9213H736.093V55.2447H695.784V83.6766H736.093V91H694.368C693.507 91 692.686 90.8359 691.907 90.5077C691.168 90.1795 690.512 89.7487 689.937 89.2153C689.404 88.682 688.973 88.0665 688.645 87.3691C688.317 86.6306 688.153 85.8511 688.153 85.0305V54.0139ZM741.647 65.2759C741.647 64.004 742.099 62.9578 743.001 62.1373C743.904 61.2757 744.971 60.8449 746.202 60.8449H774.141C775.372 60.8449 776.418 61.2757 777.28 62.1373C778.182 62.9989 778.634 64.0656 778.634 65.3374V75.0609C778.634 76.3327 778.182 77.3995 777.28 78.261C776.418 79.1226 775.372 79.5534 774.141 79.5534H749.094V84.8459H778.264V91H746.14C744.909 91 743.842 90.5692 742.94 89.7076C742.078 88.8461 741.647 87.7794 741.647 86.5075V65.2759ZM771.187 73.5224V66.876H749.094V73.5224H771.187ZM784.505 65.3374C784.505 64.0656 784.936 62.9989 785.797 62.1373C786.659 61.2757 787.705 60.8449 788.936 60.8449H810.475V67.9837H791.951V91H784.505V65.3374ZM815.088 65.2759C815.088 64.004 815.539 62.9578 816.442 62.1373C817.344 61.2757 818.411 60.8449 819.642 60.8449H847.582C848.812 60.8449 849.859 61.2757 850.72 62.1373C851.623 62.9989 852.074 64.0656 852.074 65.3374V75.0609C852.074 76.3327 851.623 77.3995 850.72 78.261C849.859 79.1226 848.812 79.5534 847.582 79.5534H822.534V84.8459H851.705V91H819.58C818.35 91 817.283 90.5692 816.38 89.7076C815.519 88.8461 815.088 87.7794 815.088 86.5075V65.2759ZM844.628 73.5224V66.876H822.534V73.5224H844.628ZM857.652 47.9213H865.099V83.5535H888.3V67.9837H869.714V60.8449H891.254C892.484 60.8449 893.531 61.2757 894.392 62.1373C895.295 62.9989 895.746 64.0656 895.746 65.3374V86.5075C895.746 87.7794 895.295 88.8461 894.392 89.7076C893.531 90.5692 892.484 91 891.254 91H862.145C860.914 91 859.847 90.5692 858.945 89.7076C858.083 88.8461 857.652 87.7794 857.652 86.5075V47.9213ZM902.178 65.3374C902.178 64.0656 902.609 62.9989 903.47 62.1373C904.332 61.2757 905.378 60.8449 906.609 60.8449H928.148V67.9837H909.624V91H902.178V65.3374ZM932.761 65.3374C932.761 64.0656 933.192 62.9989 934.053 62.1373C934.956 61.2757 936.023 60.8449 937.253 60.8449H964.516C965.747 60.8449 966.793 61.2757 967.655 62.1373C968.557 62.9989 969.009 64.0656 969.009 65.3374V86.5075C969.009 87.7794 968.557 88.8461 967.655 89.7076C966.793 90.5692 965.747 91 964.516 91H937.253C936.023 91 934.956 90.5692 934.053 89.7076C933.192 88.8461 932.761 87.7794 932.761 86.5075V65.3374ZM961.562 83.8613V67.9837H940.207V83.8613H961.562ZM999.523 71.3684C999.523 70.5479 999.667 69.7889 999.954 69.0914C1000.28 68.3529 1000.71 67.717 1001.25 67.1837C1001.82 66.6093 1002.48 66.158 1003.22 65.8298C1003.95 65.5015 1004.75 65.3374 1005.62 65.3374H1031.22V55.2447H1001.68V47.9213H1032.82C1033.64 47.9213 1034.4 48.0855 1035.09 48.4137C1035.83 48.7009 1036.47 49.1317 1037 49.706C1037.58 50.2394 1038.03 50.8753 1038.36 51.6138C1038.68 52.3523 1038.85 53.1523 1038.85 54.0139V66.6913C1038.85 67.5119 1038.68 68.2914 1038.36 69.0299C1038.07 69.7274 1037.64 70.3633 1037.06 70.9377C1036.53 71.471 1035.89 71.9018 1035.16 72.23C1034.42 72.5172 1033.62 72.6608 1032.76 72.6608H1007.15V83.6766H1040.2V91H1005.49C1004.67 91 1003.89 90.8564 1003.15 90.5692C1002.46 90.241 1001.84 89.8102 1001.31 89.2769C1000.77 88.7435 1000.34 88.1076 1000.02 87.3691C999.687 86.5896 999.523 85.769 999.523 84.9074V71.3684ZM1079.65 83.6766V55.2447H1053.68V83.6766H1079.65ZM1046.05 55.1216C1046.05 53.0703 1046.54 51.3676 1047.52 50.0137C1048.51 48.6188 1049.99 47.9213 1051.95 47.9213H1079.96C1082.01 47.9213 1083.73 48.4342 1085.13 49.4599C1086.52 50.4445 1087.22 51.942 1087.22 53.9524V83.8613C1087.22 85.9126 1086.73 87.6152 1085.74 88.9691C1084.76 90.323 1083.26 91 1081.25 91H1053.31C1051.26 91 1049.53 90.5077 1048.14 89.523C1046.74 88.5384 1046.05 87.0409 1046.05 85.0305V55.1216ZM1093.1 71.3684C1093.1 70.5479 1093.24 69.7889 1093.53 69.0914C1093.86 68.3529 1094.29 67.717 1094.82 67.1837C1095.39 66.6093 1096.05 66.158 1096.79 65.8298C1097.53 65.5015 1098.33 65.3374 1099.19 65.3374H1124.79V55.2447H1095.25V47.9213H1126.39C1127.21 47.9213 1127.97 48.0855 1128.67 48.4137C1129.41 48.7009 1130.04 49.1317 1130.58 49.706C1131.15 50.2394 1131.6 50.8753 1131.93 51.6138C1132.26 52.3523 1132.42 53.1523 1132.42 54.0139V66.6913C1132.42 67.5119 1132.26 68.2914 1131.93 69.0299C1131.64 69.7274 1131.21 70.3633 1130.64 70.9377C1130.1 71.471 1129.47 71.9018 1128.73 72.23C1127.99 72.5172 1127.19 72.6608 1126.33 72.6608H1100.73V83.6766H1133.78V91H1099.07C1098.25 91 1097.47 90.8564 1096.73 90.5692C1096.03 90.241 1095.41 89.8102 1094.88 89.2769C1094.35 88.7435 1093.92 88.1076 1093.59 87.3691C1093.26 86.5896 1093.1 85.769 1093.1 84.9074V71.3684ZM1139.31 47.9213H1146.94V71.9223H1170.82V58.2602H1178.45V91H1170.82V79.2457H1145.41C1144.54 79.2457 1143.74 79.1021 1143 78.8149C1142.27 78.4867 1141.61 78.0559 1141.04 77.5225C1140.5 76.9482 1140.07 76.3122 1139.74 75.6148C1139.46 74.8763 1139.31 74.0968 1139.31 73.2762V47.9213ZM1185.86 47.9213H1193.5V78.0764H1185.86V47.9213ZM1185.86 82.2612H1193.5V91H1185.86V82.2612Z" fill="url(#paint0_linear_176_681)"/>
</g>
<defs>
<filter id="filter0_i_176_681" x="242.81" y="47.9209" width="950.685" height="45.98" filterUnits="userSpaceOnUse" color-interpolation-filters="sRGB">
<feFlood flood-opacity="0" result="BackgroundImageFix"/>
<feBlend mode="normal" in="SourceGraphic" in2="BackgroundImageFix" result="shape"/>
<feColorMatrix in="SourceAlpha" type="matrix" values="0 0 0 0 0 0 0 0 0 0 0 0 0 0 0 0 0 0 127 0" result="hardAlpha"/>
<feOffset dx="-2.17567" dy="5.07656"/>
<feGaussianBlur stdDeviation="1.45045"/>
<feComposite in2="hardAlpha" operator="arithmetic" k2="-1" k3="1"/>
<feColorMatrix type="matrix" values="0 0 0 0 0 0 0 0 0 0 0 0 0 0 0 0 0 0 0.25 0"/>
<feBlend mode="normal" in2="shape" result="effect1_innerShadow_176_681"/>
</filter>
<linearGradient id="paint0_linear_176_681" x1="135" y1="69.5" x2="1305" y2="69.5" gradientUnits="userSpaceOnUse">
<stop stop-color="#FF5100"/>
<stop offset="1" stop-color="#6F00FF"/>
</linearGradient>
</defs>
</svg>
