<svg width="299" height="33" viewBox="0 0 299 33" fill="none" xmlns="http://www.w3.org/2000/svg">
<path d="M0.317636 27.0905H33.5989V18.7933H4.95291C4.30397 18.7933 3.68593 18.6852 3.0988 18.4689C2.54257 18.2216 2.04814 17.8972 1.61551 17.4955C1.21379 17.0628 0.88932 16.5839 0.642105 16.0585C0.425793 15.5023 0.317636 14.9152 0.317636 14.2971V4.7021C0.317636 4.02227 0.441243 3.40423 0.688458 2.848C0.935672 2.29176 1.26014 1.81279 1.66187 1.41106C2.09449 1.00934 2.57347 0.70032 3.0988 0.484008C3.65503 0.267694 4.22672 0.159538 4.81385 0.159538H35.7311V5.67551H6.06537V13.2774H34.7114C35.3603 13.2774 35.9629 13.401 36.5191 13.6482C37.0753 13.8954 37.5543 14.2199 37.956 14.6216C38.3887 15.0233 38.7286 15.5023 38.9758 16.0585C39.223 16.6148 39.3466 17.1864 39.3466 17.7736V28.0639C39.3466 29.3927 38.8986 30.4897 38.0024 31.3549C37.1062 32.1893 36.0401 32.6064 34.8041 32.6064H0.317636V27.0905ZM46.7747 15.2705H41.8613V9.89361H49.0459C49.973 9.89361 50.761 10.2181 51.4099 10.867C52.0589 11.516 52.3833 12.3194 52.3833 13.2774V32.6064H46.7747V15.2705ZM46.3111 0.808476H51.9198V6.55621H46.3111V0.808476ZM57.2627 13.2774C57.2627 12.3503 57.5872 11.5623 58.2361 10.9134C58.885 10.2335 59.6885 9.89361 60.6464 9.89361H81.1807C82.1386 9.89361 82.9421 10.2335 83.591 10.9134C84.24 11.5623 84.5644 12.3503 84.5644 13.2774V32.6064H78.9558V15.2705H62.8714V32.6064H57.2627V13.2774ZM89.2207 13.231C89.2207 12.2731 89.5452 11.4851 90.1941 10.867C90.874 10.2181 91.6774 9.89361 92.6045 9.89361H116.522V15.2705H94.8294V27.2295H116.522V32.6064H92.6045C91.7083 32.6064 90.9203 32.2974 90.2405 31.6794C89.5606 31.0305 89.2207 30.227 89.2207 29.269V13.231ZM120.681 13.231C120.681 12.2731 121.021 11.4851 121.701 10.867C122.38 10.2181 123.184 9.89361 124.111 9.89361L145.155 9.89361C146.082 9.89361 146.87 10.2181 147.519 10.867C148.199 11.516 148.539 12.3194 148.539 13.2774V20.6011C148.539 21.559 148.199 22.3625 147.519 23.0114C146.87 23.6604 146.082 23.9848 145.155 23.9848H126.289V27.9712H148.261V32.6064H124.065C123.138 32.6064 122.334 32.282 121.654 31.633C121.005 30.9841 120.681 30.1807 120.681 29.2227V13.231ZM142.93 19.4423V14.4362H126.289V19.4423H142.93ZM171.057 17.8199C171.057 17.2019 171.165 16.6302 171.381 16.1049C171.628 15.5486 171.953 15.0697 172.355 14.6679C172.787 14.2353 173.282 13.8954 173.838 13.6482C174.394 13.401 174.997 13.2774 175.646 13.2774H194.928V5.67551H172.679V0.159538L196.134 0.159538C196.752 0.159538 197.323 0.283145 197.849 0.53036C198.405 0.746672 198.884 1.07114 199.286 1.50377C199.718 1.90549 200.058 2.38447 200.305 2.9407C200.553 3.49693 200.676 4.09952 200.676 4.74846V14.2971C200.676 14.9152 200.553 15.5023 200.305 16.0585C200.089 16.5839 199.765 17.0628 199.332 17.4955C198.93 17.8972 198.451 18.2216 197.895 18.4689C197.339 18.6852 196.736 18.7933 196.087 18.7933H176.805V27.0905H201.696V32.6064H175.553C174.935 32.6064 174.348 32.4983 173.792 32.282C173.266 32.0348 172.803 31.7103 172.401 31.3086C171.999 30.9068 171.675 30.4279 171.428 29.8716C171.18 29.2845 171.057 28.6665 171.057 28.0175V17.8199ZM231.407 27.0905V5.67551H211.846V27.0905H231.407ZM206.098 5.58281C206.098 4.03772 206.469 2.75529 207.211 1.73553C207.952 0.684869 209.065 0.159538 210.548 0.159538H231.639C233.184 0.159538 234.482 0.545811 235.532 1.31836C236.583 2.06 237.108 3.18792 237.108 4.7021V27.2295C237.108 28.7746 236.738 30.057 235.996 31.0768C235.254 32.0966 234.126 32.6064 232.612 32.6064H211.568C210.023 32.6064 208.725 32.2356 207.674 31.494C206.624 30.7523 206.098 29.6244 206.098 28.1102V5.58281ZM241.768 27.0905H250.761V5.67551H242.046V0.159538H251.919C252.568 0.159538 253.171 0.283145 253.727 0.53036C254.283 0.777575 254.762 1.1175 255.164 1.55012C255.597 1.95184 255.921 2.43082 256.138 2.98705C256.385 3.51238 256.508 4.08407 256.508 4.7021V27.0905H263.6V32.6064L241.768 32.6064V27.0905ZM267.519 27.0905H292.828V18.7933H272.711V13.2774H292.828V5.67551H267.519V0.159538H294.079C294.667 0.159538 295.238 0.283145 295.795 0.53036C296.351 0.746672 296.83 1.07114 297.231 1.50377C297.633 1.90549 297.958 2.38447 298.205 2.9407C298.452 3.49693 298.576 4.09952 298.576 4.74846V28.1102C298.576 28.7283 298.452 29.3154 298.205 29.8716C297.958 30.397 297.618 30.8605 297.185 31.2622C296.783 31.6639 296.289 31.9884 295.702 32.2356C295.146 32.4828 294.543 32.6064 293.894 32.6064H267.519V27.0905Z" fill="#212121"/>
</svg>
