<svg width="1440" height="129" viewBox="0 0 1440 129" fill="none" xmlns="http://www.w3.org/2000/svg">
<rect width="1440" height="129" fill="white"/>
<path d="M225.839 22.0949H233.617V58.5361H266.483V22.0949H274.26V59.7906C274.26 60.6687 274.093 61.4841 273.758 62.2367C273.424 62.9894 272.964 63.6584 272.379 64.2438C271.835 64.7874 271.187 65.2264 270.434 65.5609C269.723 65.8536 268.95 66 268.113 66H232.174C231.296 66 230.46 65.8327 229.665 65.4982C228.913 65.1637 228.244 64.7247 227.658 64.1811C227.115 63.6375 226.675 63.0103 226.341 62.2994C226.006 61.5468 225.839 60.7523 225.839 59.916V22.0949ZM280.537 39.8451C280.537 38.5907 280.976 37.5244 281.854 36.6463C282.732 35.7264 283.819 35.2665 285.115 35.2665H312.901C314.197 35.2665 315.284 35.7264 316.163 36.6463C317.041 37.5244 317.48 38.5907 317.48 39.8451V66H309.89V42.5422H288.126V66H280.537V39.8451ZM325.035 22.0949H332.624V66H325.035V22.0949ZM340.134 39.7824C340.134 38.4862 340.594 37.4199 341.514 36.5836C342.434 35.7055 343.521 35.2665 344.776 35.2665H373.251C374.506 35.2665 375.572 35.7055 376.45 36.5836C377.37 37.4617 377.83 38.5489 377.83 39.8451V49.7551C377.83 51.0514 377.37 52.1385 376.45 53.0166C375.572 53.8948 374.506 54.3338 373.251 54.3338H347.724V59.7279H377.454V66H344.713C343.459 66 342.371 65.5609 341.452 64.6828C340.573 63.8047 340.134 62.7176 340.134 61.4213V39.7824ZM370.241 48.1871V41.4132H347.724V48.1871H370.241ZM381.954 51.3859C381.954 50.0896 382.394 49.0234 383.272 48.1871C384.192 47.309 385.279 46.8699 386.533 46.8699H411.308V41.4132H386.533V35.2665H414.381C415.636 35.2665 416.702 35.7055 417.58 36.5836C418.458 37.4617 418.897 38.5489 418.897 39.8451V61.4841C418.897 62.7385 418.437 63.8047 417.518 64.6828C416.639 65.5609 415.573 66 414.319 66H386.533C385.279 66 384.192 65.5819 383.272 64.7456C382.394 63.8675 381.954 62.7803 381.954 61.4841V51.3859ZM411.308 59.8533V53.0166H389.544V59.8533H411.308ZM425.277 59.8533H453.941V53.0794H429.103C427.848 53.0794 426.761 52.6403 425.841 51.7622C424.963 50.8841 424.524 49.7969 424.524 48.5007V39.7824C424.524 38.4862 424.963 37.4199 425.841 36.5836C426.761 35.7055 427.848 35.2665 429.103 35.2665H459.46V41.4132H432.114V46.9327H456.951C458.206 46.9327 459.272 47.3717 460.15 48.2498C461.07 49.1279 461.53 50.2151 461.53 51.5113V61.4213C461.53 62.7176 461.07 63.8047 460.15 64.6828C459.272 65.5609 458.206 66 456.951 66H425.277V59.8533ZM467.797 22.0949H475.386V35.2665H499.534C500.83 35.2665 501.918 35.7264 502.796 36.6463C503.674 37.5244 504.113 38.5907 504.113 39.8451V66H496.524V42.5422H475.386V66H467.797V22.0949ZM557.103 48.9398H546.566C544.642 48.9398 543.032 48.4589 541.736 47.4972C540.482 46.5354 539.562 45.0092 538.976 42.9185L533.018 22.0949H540.795L546.566 41.7895H575.48L581.125 22.0949H588.903L583.069 42.9185C582.484 45.0092 581.564 46.5354 580.31 47.4972C579.055 48.4589 577.425 48.9398 575.417 48.9398H564.88V66H557.103V48.9398ZM589.244 39.8451C589.244 38.5489 589.683 37.4617 590.561 36.5836C591.481 35.7055 592.568 35.2665 593.823 35.2665H621.608C622.863 35.2665 623.929 35.7055 624.807 36.5836C625.727 37.4617 626.187 38.5489 626.187 39.8451V61.4213C626.187 62.7176 625.727 63.8047 624.807 64.6828C623.929 65.5609 622.863 66 621.608 66H593.823C592.568 66 591.481 65.5609 590.561 64.6828C589.683 63.8047 589.244 62.7176 589.244 61.4213V39.8451ZM618.598 58.7243V42.5422H596.833V58.7243H618.598ZM632.488 35.2665H640.077V58.7243H661.277V35.2665H668.866V61.4213C668.866 62.6758 668.427 63.7629 667.549 64.6828C666.671 65.5609 665.584 66 664.287 66H637.066C635.77 66 634.683 65.5609 633.805 64.6828C632.927 63.7629 632.488 62.6758 632.488 61.4213V35.2665ZM675.432 39.8451C675.432 38.5489 675.871 37.4617 676.749 36.5836C677.628 35.7055 678.694 35.2665 679.948 35.2665H701.901V42.5422H683.022V66H675.432V39.8451ZM730.14 58.5361H745.883V29.5588H730.14V22.0949H770.407V29.5588H753.66V58.5361H770.407V66H730.14V58.5361ZM774.775 39.8451C774.775 38.5907 775.214 37.5244 776.092 36.6463C776.97 35.7264 778.057 35.2665 779.353 35.2665H807.139C808.435 35.2665 809.523 35.7264 810.401 36.6463C811.279 37.5244 811.718 38.5907 811.718 39.8451V66H804.128V42.5422H782.364V66H774.775V39.8451ZM818.018 39.8451C818.018 38.5907 818.457 37.5244 819.335 36.6463C820.214 35.7264 821.301 35.2665 822.597 35.2665H850.383C851.679 35.2665 852.766 35.7264 853.644 36.6463C854.522 37.5244 854.961 38.5907 854.961 39.8451V66H847.372V42.5422H825.608V66H818.018V39.8451ZM861.262 39.7824C861.262 38.4862 861.722 37.4199 862.642 36.5836C863.562 35.7055 864.649 35.2665 865.903 35.2665H894.379C895.633 35.2665 896.7 35.7055 897.578 36.5836C898.498 37.4617 898.957 38.5489 898.957 39.8451V49.7551C898.957 51.0514 898.498 52.1385 897.578 53.0166C896.7 53.8948 895.633 54.3338 894.379 54.3338H868.851V59.7279H898.581V66H865.841C864.586 66 863.499 65.5609 862.579 64.6828C861.701 63.8047 861.262 62.7176 861.262 61.4213V39.7824ZM891.368 48.1871V41.4132H868.851V48.1871H891.368ZM904.942 39.8451C904.942 38.5489 905.381 37.4617 906.259 36.5836C907.137 35.7055 908.203 35.2665 909.457 35.2665H931.41V42.5422H912.531V66H904.942V39.8451ZM961.217 28.3044C961.217 27.4263 961.384 26.6109 961.719 25.8582C962.053 25.1056 962.492 24.4575 963.036 23.9139C963.579 23.3285 964.207 22.8894 964.917 22.5967C965.67 22.2622 966.465 22.0949 967.301 22.0949H1010.08V29.5588H968.994V58.5361H1010.08V66H967.552C966.674 66 965.837 65.8327 965.043 65.4982C964.29 65.1637 963.621 64.7247 963.036 64.1811C962.492 63.6375 962.053 63.0103 961.719 62.2994C961.384 61.5468 961.217 60.7523 961.217 59.916V28.3044ZM1014.71 59.8533H1044.07V54.3965H1017.66C1016.4 54.3965 1015.34 53.9575 1014.46 53.0794C1013.58 52.2013 1013.14 51.1141 1013.14 49.8179V35.2665H1020.73V48.2498H1044.07V35.2665H1051.65V61.4213C1051.65 62.7176 1051.19 63.8047 1050.27 64.6828C1049.4 65.5609 1048.33 66 1047.08 66H1014.71V59.8533ZM1058.57 22.0949H1066.16V58.4107H1089.8V42.5422H1070.86V35.2665H1092.81C1094.07 35.2665 1095.13 35.7055 1096.01 36.5836C1096.93 37.4617 1097.39 38.5489 1097.39 39.8451V61.4213C1097.39 62.7176 1096.93 63.8047 1096.01 64.6828C1095.13 65.5609 1094.07 66 1092.81 66H1063.15C1061.89 66 1060.8 65.5609 1059.88 64.6828C1059.01 63.8047 1058.57 62.7176 1058.57 61.4213V22.0949ZM1103.63 39.8451C1103.63 38.5489 1104.07 37.4617 1104.95 36.5836C1105.87 35.7055 1106.96 35.2665 1108.21 35.2665H1136C1137.25 35.2665 1138.32 35.7055 1139.2 36.5836C1140.12 37.4617 1140.58 38.5489 1140.58 39.8451V61.4213C1140.58 62.7176 1140.12 63.8047 1139.2 64.6828C1138.32 65.5609 1137.25 66 1136 66H1108.21C1106.96 66 1105.87 65.5609 1104.95 64.6828C1104.07 63.8047 1103.63 62.7176 1103.63 61.4213V39.8451ZM1132.99 58.7243V42.5422H1111.22V58.7243H1132.99ZM1147.19 39.8451C1147.19 38.5489 1147.63 37.4617 1148.51 36.5836C1149.39 35.7055 1150.45 35.2665 1151.71 35.2665H1173.66V42.5422H1154.78V66H1147.19V39.8451ZM1178.36 39.7824C1178.36 38.528 1178.8 37.4617 1179.68 36.5836C1180.56 35.7055 1181.62 35.2665 1182.88 35.2665H1216.06V41.4132H1185.95V59.8533H1210.54V53.9575H1195.17V47.8108H1213.55C1214.8 47.8108 1215.87 48.2498 1216.75 49.1279C1217.67 50.006 1218.13 51.0932 1218.13 52.3894V61.4213C1218.13 62.7176 1217.67 63.8047 1216.75 64.6828C1215.87 65.5609 1214.8 66 1213.55 66H1182.94C1181.68 66 1180.6 65.5819 1179.68 64.7456C1178.8 63.8675 1178.36 62.7803 1178.36 61.4841V39.7824Z" fill="#212121"/>
<path d="M220.586 96.5159H227.934V82.9892H220.586V79.505H239.382V82.9892H231.565V96.5159H239.382V100H220.586V96.5159ZM240.543 96.5159H247.892V82.9892H240.543V79.505H259.34V82.9892H251.522V96.5159H259.34V100H240.543V96.5159ZM260.5 96.5159H267.849V82.9892H260.5V79.505H279.297V82.9892H271.48V96.5159H279.297V100H260.5V96.5159ZM291.138 82.9892H280.597V79.505H305.279V82.9892H294.768V100H291.138V82.9892ZM307.042 79.505H310.936L316.499 96.5159H321.213L326.776 79.505H330.611L324.609 97.1893C324.316 98.0676 323.887 98.7605 323.321 99.268C322.755 99.756 322.033 100 321.154 100H316.557C315.621 100 314.879 99.756 314.332 99.268C313.786 98.7605 313.356 98.0676 313.044 97.1893L307.042 79.505ZM332.374 79.505H335.624V86.7661H332.374V79.505ZM338.608 97.1307H351.988V93.9686H340.394C339.809 93.9686 339.301 93.7637 338.872 93.3538C338.462 92.9439 338.257 92.4364 338.257 91.8313V87.7616C338.257 87.1565 338.462 86.6587 338.872 86.2684C339.301 85.8585 339.809 85.6535 340.394 85.6535H354.565V88.5228H341.799V91.0993H353.394C353.979 91.0993 354.477 91.3043 354.887 91.7142C355.316 92.1241 355.531 92.6316 355.531 93.2367V97.8627C355.531 98.4678 355.316 98.9753 354.887 99.3852C354.477 99.7951 353.979 100 353.394 100H338.608V97.1307ZM369.887 82.4036C369.887 81.9937 369.965 81.6131 370.121 81.2617C370.277 80.9104 370.482 80.6078 370.736 80.3541C370.99 80.0808 371.282 79.8759 371.614 79.7392C371.966 79.5831 372.336 79.505 372.727 79.505H390.03V82.9892H373.517V89.4304H387.688V92.9146H373.517V100H369.887V82.4036ZM390.33 85.6535H393.873V96.6037H403.769V85.6535H407.312V97.8627C407.312 98.4482 407.107 98.9557 406.697 99.3852C406.287 99.7951 405.78 100 405.174 100H392.468C391.863 100 391.355 99.7951 390.945 99.3852C390.535 98.9557 390.33 98.4482 390.33 97.8627V85.6535ZM413.129 89.0498H409.059V85.6535H413.129V81.2617H416.672V85.6535H424.109V89.0498H416.672V96.633H424.255V100H415.266C414.681 100 414.173 99.7951 413.744 99.3852C413.334 98.9753 413.129 98.4678 413.129 97.8627V89.0498ZM426.585 85.6535H430.128V96.6037H440.024V85.6535H443.567V97.8627C443.567 98.4482 443.362 98.9557 442.952 99.3852C442.542 99.7951 442.035 100 441.43 100H428.723C428.118 100 427.61 99.7951 427.2 99.3852C426.79 98.9557 426.585 98.4482 426.585 97.8627V85.6535ZM446.632 87.7908C446.632 87.1858 446.837 86.6783 447.247 86.2684C447.657 85.8585 448.154 85.6535 448.74 85.6535H458.988V89.0498H450.175V100H446.632V87.7908ZM464.136 89.0498H461.032V85.6535H465.57C466.156 85.6535 466.654 85.8585 467.064 86.2684C467.474 86.6783 467.678 87.1858 467.678 87.7908V100H464.136V89.0498ZM463.843 79.9149H467.386V83.5455H463.843V79.9149ZM470.819 97.1307H484.199V93.9686H472.605C472.019 93.9686 471.512 93.7637 471.083 93.3538C470.673 92.9439 470.468 92.4364 470.468 91.8313V87.7616C470.468 87.1565 470.673 86.6587 471.083 86.2684C471.512 85.8585 472.019 85.6535 472.605 85.6535H486.776V88.5228H474.01V91.0993H485.605C486.19 91.0993 486.688 91.3043 487.098 91.7142C487.527 92.1241 487.742 92.6316 487.742 93.2367V97.8627C487.742 98.4678 487.527 98.9753 487.098 99.3852C486.688 99.7951 486.19 100 485.605 100H470.819V97.1307ZM493.273 89.0498H489.204V85.6535H493.273V81.2617H496.816V85.6535H504.253V89.0498H496.816V96.633H504.399V100H495.411C494.825 100 494.318 99.7951 493.888 99.3852C493.478 98.9753 493.273 98.4678 493.273 97.8627V89.0498ZM509.254 89.0498H506.151V85.6535H510.689C511.275 85.6535 511.772 85.8585 512.182 86.2684C512.592 86.6783 512.797 87.1858 512.797 87.7908V100H509.254V89.0498ZM508.962 79.9149H512.504V83.5455H508.962V79.9149ZM515.879 87.7616C515.879 87.1565 516.084 86.6587 516.494 86.2684C516.923 85.8585 517.431 85.6535 518.017 85.6535H533.124V89.0498H519.422V96.6037H533.124V100H518.017C517.45 100 516.953 99.8048 516.523 99.4144C516.094 99.0045 515.879 98.497 515.879 97.8919V87.7616ZM547.474 79.505H550.724V86.7661H547.474V79.505ZM553.503 82.4036C553.503 81.9937 553.581 81.6131 553.738 81.2617C553.894 80.9104 554.099 80.6078 554.352 80.3541C554.606 80.0808 554.899 79.8759 555.231 79.7392C555.582 79.5831 555.953 79.505 556.343 79.505H576.311V82.9892H557.134V96.5159H576.311V100H556.46C556.051 100 555.66 99.9219 555.289 99.7658C554.938 99.6096 554.626 99.4047 554.352 99.1509C554.099 98.8972 553.894 98.6044 553.738 98.2726C553.581 97.9212 553.503 97.5504 553.503 97.16V82.4036ZM579.539 79.505H583.082V100H579.539V79.505ZM586.295 93.1781C586.295 92.573 586.5 92.0753 586.91 91.6849C587.34 91.275 587.847 91.07 588.433 91.07H599.998V88.5228H588.433V85.6535H601.432C602.018 85.6535 602.516 85.8585 602.925 86.2684C603.335 86.6783 603.54 87.1858 603.54 87.7908V97.8919C603.54 98.4775 603.326 98.9753 602.896 99.3852C602.486 99.7951 601.989 100 601.403 100H588.433C587.847 100 587.34 99.8048 586.91 99.4144C586.5 99.0045 586.295 98.497 586.295 97.8919V93.1781ZM599.998 97.1307V93.9393H589.838V97.1307H599.998ZM606.518 97.1307H619.899V93.9686H608.304C607.719 93.9686 607.211 93.7637 606.782 93.3538C606.372 92.9439 606.167 92.4364 606.167 91.8313V87.7616C606.167 87.1565 606.372 86.6587 606.782 86.2684C607.211 85.8585 607.719 85.6535 608.304 85.6535H622.475V88.5228H609.71V91.0993H621.304C621.89 91.0993 622.387 91.3043 622.797 91.7142C623.227 92.1241 623.441 92.6316 623.441 93.2367V97.8627C623.441 98.4678 623.227 98.9753 622.797 99.3852C622.387 99.7951 621.89 100 621.304 100H606.518V97.1307ZM626.367 79.505H629.91V85.6535H641.182C641.787 85.6535 642.294 85.8682 642.704 86.2976C643.114 86.7075 643.319 87.2053 643.319 87.7908V100H639.776V89.0498H629.91V100H626.367V79.505ZM657.983 87.7908C657.983 87.1858 658.188 86.6783 658.598 86.2684C659.027 85.8585 659.535 85.6535 660.12 85.6535H673.091C673.676 85.6535 674.174 85.8585 674.584 86.2684C675.013 86.6783 675.228 87.1858 675.228 87.7908V97.8627C675.228 98.4678 675.013 98.9753 674.584 99.3852C674.174 99.7951 673.676 100 673.091 100H660.12C659.535 100 659.027 99.7951 658.598 99.3852C658.188 98.9753 657.983 98.4678 657.983 97.8627V87.7908ZM671.685 96.6037V89.0498H661.526V96.6037H671.685ZM680.453 88.9034H677.291V85.6535H680.453V81.6423C680.453 81.0373 680.658 80.5298 681.068 80.1199C681.497 79.71 682.005 79.505 682.59 79.505H691.462V82.6671H683.996V85.6535H689.676V88.9034H683.996V100H680.453V88.9034ZM703.767 96.5159H711.116V82.9892H703.767V79.505H722.564V82.9892H714.747V96.5159H722.564V100H703.767V96.5159ZM724.603 87.7908C724.603 87.2053 724.808 86.7075 725.218 86.2976C725.628 85.8682 726.135 85.6535 726.741 85.6535H739.711C740.316 85.6535 740.824 85.8682 741.233 86.2976C741.643 86.7075 741.848 87.2053 741.848 87.7908V100H738.306V89.0498H728.146V100H724.603V87.7908ZM747.688 89.0498H743.618V85.6535H747.688V81.2617H751.231V85.6535H758.667V89.0498H751.231V96.633H758.814V100H749.825C749.24 100 748.732 99.7951 748.303 99.3852C747.893 98.9753 747.688 98.4678 747.688 97.8627V89.0498ZM761.144 87.7616C761.144 87.1565 761.359 86.6587 761.788 86.2684C762.218 85.8585 762.725 85.6535 763.311 85.6535H776.603C777.189 85.6535 777.687 85.8585 778.097 86.2684C778.526 86.6783 778.741 87.1858 778.741 87.7908V92.4169C778.741 93.0219 778.526 93.5294 778.097 93.9393C777.687 94.3492 777.189 94.5542 776.603 94.5542H764.687V97.0721H778.565V100H763.282C762.696 100 762.188 99.7951 761.759 99.3852C761.349 98.9753 761.144 98.4678 761.144 97.8627V87.7616ZM775.198 91.6849V88.5228H764.687V91.6849H775.198ZM781.687 79.505H785.23V100H781.687V79.505ZM789.321 79.505H792.864V100H789.321V79.505ZM796.37 87.7616C796.37 87.1565 796.585 86.6587 797.014 86.2684C797.444 85.8585 797.951 85.6535 798.537 85.6535H811.829C812.415 85.6535 812.912 85.8585 813.322 86.2684C813.752 86.6783 813.966 87.1858 813.966 87.7908V92.4169C813.966 93.0219 813.752 93.5294 813.322 93.9393C812.912 94.3492 812.415 94.5542 811.829 94.5542H799.913V97.0721H813.791V100H798.507C797.922 100 797.414 99.7951 796.985 99.3852C796.575 98.9753 796.37 98.4678 796.37 97.8627V87.7616ZM810.424 91.6849V88.5228H799.913V91.6849H810.424ZM816.613 87.7616C816.613 87.1565 816.818 86.6587 817.228 86.2684C817.658 85.8585 818.165 85.6535 818.751 85.6535H833.858V89.0498H820.156V96.6037H833.858V100H818.751C818.185 100 817.687 99.8048 817.258 99.4144C816.828 99.0045 816.613 98.497 816.613 97.8919V87.7616ZM839.384 89.0498H835.314V85.6535H839.384V81.2617H842.926V85.6535H850.363V89.0498H842.926V96.633H850.509V100H841.521C840.935 100 840.428 99.7951 839.998 99.3852C839.589 98.9753 839.384 98.4678 839.384 97.8627V89.0498ZM852.898 97.1307H866.279V93.9686H854.684C854.099 93.9686 853.591 93.7637 853.162 93.3538C852.752 92.9439 852.547 92.4364 852.547 91.8313V87.7616C852.547 87.1565 852.752 86.6587 853.162 86.2684C853.591 85.8585 854.099 85.6535 854.684 85.6535H868.855V88.5228H856.09V91.0993H867.684C868.27 91.0993 868.767 91.3043 869.177 91.7142C869.607 92.1241 869.821 92.6316 869.821 93.2367V97.8627C869.821 98.4678 869.607 98.9753 869.177 99.3852C868.767 99.7951 868.27 100 867.684 100H852.898V97.1307ZM872.454 79.505H875.704V86.7661H872.454V79.505ZM899.869 82.9892H889.328V79.505H914.01V82.9892H903.499V100H899.869V82.9892ZM911.683 87.7616C911.683 87.1565 911.898 86.6587 912.327 86.2684C912.756 85.8585 913.264 85.6535 913.85 85.6535H927.142C927.728 85.6535 928.225 85.8585 928.635 86.2684C929.065 86.6783 929.279 87.1858 929.279 87.7908V92.4169C929.279 93.0219 929.065 93.5294 928.635 93.9393C928.225 94.3492 927.728 94.5542 927.142 94.5542H915.226V97.0721H929.104V100H913.82C913.235 100 912.727 99.7951 912.298 99.3852C911.888 98.9753 911.683 98.4678 911.683 97.8627V87.7616ZM925.737 91.6849V88.5228H915.226V91.6849H925.737ZM931.926 87.7616C931.926 87.1565 932.131 86.6587 932.541 86.2684C932.971 85.8585 933.478 85.6535 934.064 85.6535H949.171V89.0498H935.469V96.6037H949.171V100H934.064C933.498 100 933 99.8048 932.57 99.4144C932.141 99.0045 931.926 98.497 931.926 97.8919V87.7616ZM952.091 79.505H955.633V85.6535H966.906C967.511 85.6535 968.018 85.8682 968.428 86.2976C968.838 86.7075 969.043 87.2053 969.043 87.7908V100H965.5V89.0498H955.633V100H952.091V79.505ZM983.561 82.4036C983.561 81.9937 983.639 81.6131 983.795 81.2617C983.951 80.9104 984.156 80.6078 984.41 80.3541C984.663 80.0808 984.956 79.8759 985.288 79.7392C985.639 79.5831 986.01 79.505 986.401 79.505H1005.58V82.9892H987.191V87.7908H1003.21V91.275H987.191V96.5159H1005.58V100H986.518C986.108 100 985.717 99.9219 985.347 99.7658C984.995 99.6096 984.683 99.4047 984.41 99.1509C984.156 98.8972 983.951 98.6044 983.795 98.2726C983.639 97.9212 983.561 97.5504 983.561 97.16V82.4036ZM1014.33 92.7096L1007.19 85.6535H1011.93L1016.76 90.4552L1021.68 85.6535H1026.31L1019.08 92.7096L1026.48 100H1021.74L1016.62 94.9348L1011.44 100H1006.87L1014.33 92.7096ZM1032.04 89.0498H1027.97V85.6535H1032.04V81.2617H1035.58V85.6535H1043.02V89.0498H1035.58V96.633H1043.16V100H1034.18C1033.59 100 1033.08 99.7951 1032.65 99.3852C1032.24 98.9753 1032.04 98.4678 1032.04 97.8627V89.0498ZM1045.64 87.7908C1045.64 87.1858 1045.85 86.6783 1046.26 86.2684C1046.67 85.8585 1047.16 85.6535 1047.75 85.6535H1058V89.0498H1049.18V100H1045.64V87.7908ZM1058.73 93.1781C1058.73 92.573 1058.93 92.0753 1059.34 91.6849C1059.77 91.275 1060.28 91.07 1060.86 91.07H1072.43V88.5228H1060.86V85.6535H1073.86C1074.45 85.6535 1074.95 85.8585 1075.36 86.2684C1075.77 86.6783 1075.97 87.1858 1075.97 87.7908V97.8919C1075.97 98.4775 1075.76 98.9753 1075.33 99.3852C1074.92 99.7951 1074.42 100 1073.83 100H1060.86C1060.28 100 1059.77 99.8048 1059.34 99.4144C1058.93 99.0045 1058.73 98.497 1058.73 97.8919V93.1781ZM1072.43 97.1307V93.9393H1062.27V97.1307H1072.43ZM1077.29 85.6535H1081.16L1085.31 96.2523H1087.63L1091.67 85.6535H1095.47L1090.64 97.9798C1090.33 98.741 1089.98 99.268 1089.59 99.5608C1089.22 99.8536 1088.78 100 1088.27 100H1084.73C1084.22 100 1083.76 99.8536 1083.35 99.5608C1082.96 99.268 1082.61 98.741 1082.3 97.9798L1077.29 85.6535ZM1095.75 93.1781C1095.75 92.573 1095.96 92.0753 1096.37 91.6849C1096.8 91.275 1097.31 91.07 1097.89 91.07H1109.46V88.5228H1097.89V85.6535H1110.89C1111.48 85.6535 1111.97 85.8585 1112.38 86.2684C1112.79 86.6783 1113 87.1858 1113 87.7908V97.8919C1113 98.4775 1112.78 98.9753 1112.35 99.3852C1111.94 99.7951 1111.45 100 1110.86 100H1097.89C1097.31 100 1096.8 99.8048 1096.37 99.4144C1095.96 99.0045 1095.75 98.497 1095.75 97.8919V93.1781ZM1109.46 97.1307V93.9393H1099.3V97.1307H1109.46ZM1115.92 87.7616C1115.92 87.176 1116.12 86.6783 1116.53 86.2684C1116.94 85.8585 1117.44 85.6535 1118.03 85.6535H1133.51V88.5228H1119.46V97.1307H1130.94V94.3785H1123.76V91.5092H1132.34C1132.93 91.5092 1133.43 91.7142 1133.84 92.1241C1134.27 92.534 1134.48 93.0415 1134.48 93.6466V97.8627C1134.48 98.4678 1134.27 98.9753 1133.84 99.3852C1133.43 99.7951 1132.93 100 1132.34 100H1118.06C1117.47 100 1116.96 99.8048 1116.53 99.4144C1116.12 99.0045 1115.92 98.497 1115.92 97.8919V87.7616ZM1136.67 93.1781C1136.67 92.573 1136.87 92.0753 1137.28 91.6849C1137.71 91.275 1138.22 91.07 1138.81 91.07H1150.37V88.5228H1138.81V85.6535H1151.81C1152.39 85.6535 1152.89 85.8585 1153.3 86.2684C1153.71 86.6783 1153.91 87.1858 1153.91 87.7908V97.8919C1153.91 98.4775 1153.7 98.9753 1153.27 99.3852C1152.86 99.7951 1152.36 100 1151.78 100H1138.81C1138.22 100 1137.71 99.8048 1137.28 99.4144C1136.87 99.0045 1136.67 98.497 1136.67 97.8919V93.1781ZM1150.37 97.1307V93.9393H1140.21V97.1307H1150.37ZM1156.83 87.7908C1156.83 87.2053 1157.04 86.7075 1157.45 86.2976C1157.86 85.8682 1158.37 85.6535 1158.97 85.6535H1171.94C1172.55 85.6535 1173.05 85.8682 1173.46 86.2976C1173.87 86.7075 1174.08 87.2053 1174.08 87.7908V100H1170.54V89.0498H1160.38V100H1156.83V87.7908ZM1189.15 88.757H1177.09V85.6535H1191.93C1192.63 85.6535 1193.14 85.8487 1193.45 86.2391C1193.78 86.6099 1193.95 87.0784 1193.95 87.6445C1193.95 88.3081 1193.8 88.8254 1193.51 89.1962C1193.22 89.5476 1192.81 89.8891 1192.28 90.221L1181.21 96.7501H1193.77V100H1177.93C1177.33 100 1176.88 99.8048 1176.59 99.4144C1176.29 99.024 1176.15 98.6044 1176.15 98.1555C1176.15 97.5504 1176.27 97.0819 1176.5 96.7501C1176.75 96.3987 1177.14 96.0572 1177.67 95.7253L1189.15 88.757ZM1195.83 93.1781C1195.83 92.573 1196.03 92.0753 1196.44 91.6849C1196.87 91.275 1197.38 91.07 1197.96 91.07H1209.53V88.5228H1197.96V85.6535H1210.96C1211.55 85.6535 1212.05 85.8585 1212.46 86.2684C1212.87 86.6783 1213.07 87.1858 1213.07 87.7908V97.8919C1213.07 98.4775 1212.86 98.9753 1212.43 99.3852C1212.02 99.7951 1211.52 100 1210.93 100H1197.96C1197.38 100 1196.87 99.8048 1196.44 99.4144C1196.03 99.0045 1195.83 98.497 1195.83 97.8919V93.1781ZM1209.53 97.1307V93.9393H1199.37V97.1307H1209.53ZM1216.58 79.505H1220.21V93.8515H1216.58V79.505ZM1216.58 95.8424H1220.21V100H1216.58V95.8424Z" fill="#212121"/>
</svg>
